<svg width="136" height="17" viewBox="0 0 136 17" fill="none" xmlns="http://www.w3.org/2000/svg">
<path d="M12.672 15.64C12.464 15.368 12.288 15.072 12.144 14.752C12 14.416 11.848 14.016 11.688 13.552C11.656 13.472 11.56 13.232 11.4 12.832C11.256 12.432 11.088 12.088 10.896 11.8C9.888 11.944 9.064 12.016 8.424 12.016C8.072 12.016 7.68 12.008 7.248 11.992C6.832 11.96 6.52 11.944 6.312 11.944C5.512 11.88 4.872 11.848 4.392 11.848C4.2 12.104 4.032 12.376 3.888 12.664C3.76 12.952 3.592 13.384 3.384 13.96C3.096 14.792 2.848 15.384 2.64 15.736C2.496 15.976 2.216 16.096 1.8 16.096C1.448 16.096 1.12 16.024 0.816 15.88C0.528 15.72 0.384 15.504 0.384 15.232C0.512 14.624 0.712 13.984 0.984 13.312C1.272 12.624 1.68 11.712 2.208 10.576L3.168 8.224C3.696 6.88 4.176 5.728 4.608 4.768C5.056 3.808 5.64 2.672 6.36 1.36C6.456 1.168 6.616 1.008 6.84 0.879999C7.064 0.735999 7.312 0.663999 7.584 0.663999C7.888 0.663999 8.104 0.687999 8.232 0.735999C8.376 0.768 8.488 0.832 8.568 0.927999C8.648 1.008 8.768 1.184 8.928 1.456C9.472 2.304 9.936 3.176 10.32 4.072C10.72 4.968 11.224 6.208 11.832 7.792L12.336 9.064C12.784 10.216 13.168 11.184 13.488 11.968C13.824 12.736 14.192 13.44 14.592 14.08C14.848 14.496 14.976 14.784 14.976 14.944C14.976 15.328 14.856 15.624 14.616 15.832C14.392 16.024 14.096 16.12 13.728 16.12C13.264 16.12 12.912 15.96 12.672 15.64ZM10.2 9.832C9.944 9.288 9.576 8.344 9.096 7C8.6 5.56 8.104 4.416 7.608 3.568C7.304 4.336 6.856 5.328 6.264 6.544C5.864 7.296 5.408 8.384 4.896 9.808C5.92 9.936 7.024 10 8.208 10C9.056 10 9.72 9.944 10.2 9.832ZM27.9996 14.464C28.0156 14.8 27.9756 15.04 27.8796 15.184C27.7836 15.312 27.5916 15.448 27.3036 15.592C26.8716 15.8 26.3596 15.936 25.7676 16C25.1916 16.064 24.4476 16.096 23.5356 16.096H21.9036C20.4796 16.096 19.4236 15.856 18.7356 15.376C18.0476 14.88 17.6156 14.288 17.4396 13.6C17.2636 12.912 17.1596 12.024 17.1276 10.936C17.1116 10.568 17.1036 10.024 17.1036 9.304C17.1036 7.736 17.2396 5.64 17.5116 3.016C17.5916 2.248 17.8716 1.696 18.3516 1.36C18.8316 1.008 19.3756 0.831999 19.9836 0.831999C20.4796 0.831999 21.2876 0.816 22.4076 0.784L24.5196 0.759999C25.3836 0.759999 26.0076 0.783999 26.3916 0.831999C26.8716 0.927999 27.2316 1.04 27.4716 1.168C27.7116 1.28 27.8396 1.48 27.8556 1.768C27.8556 2.088 27.7516 2.4 27.5436 2.704C27.3356 3.008 27.0156 3.16 26.5836 3.16C26.0876 3.16 25.3756 3.128 24.4476 3.064C23.5196 3 22.8156 2.968 22.3356 2.968C21.9036 2.968 21.5116 2.992 21.1596 3.04C20.7116 3.072 20.3916 3.128 20.1996 3.208C20.0076 3.288 19.9036 3.424 19.8876 3.616C19.7116 5.36 19.6396 6.576 19.6716 7.264C20.0396 7.312 20.4076 7.336 20.7756 7.336C21.1436 7.336 21.6476 7.304 22.2876 7.24C22.4476 7.224 22.6476 7.208 22.8876 7.192C23.1276 7.176 23.3996 7.168 23.7036 7.168C23.8796 7.168 24.1596 7.184 24.5436 7.216L25.2876 7.24C26.0236 7.24 26.3916 7.504 26.3916 8.032C26.3916 8.352 26.3036 8.608 26.1276 8.8C25.9516 8.992 25.6396 9.136 25.1916 9.232C24.5836 9.344 23.5996 9.4 22.2396 9.4H20.7756C20.4716 9.4 20.0956 9.384 19.6476 9.352C19.6316 9.64 19.6236 10.056 19.6236 10.6C19.6236 11.304 19.6316 11.8 19.6476 12.088C19.6956 13.208 20.4716 13.768 21.9756 13.768C22.4876 13.768 23.0316 13.784 23.6076 13.816L24.4956 13.84C24.9116 13.84 25.2556 13.8 25.5276 13.72C25.7996 13.624 26.0636 13.544 26.3196 13.48C26.5916 13.4 26.8396 13.36 27.0636 13.36C27.3676 13.36 27.5996 13.48 27.7596 13.72C27.9196 13.944 27.9996 14.192 27.9996 14.464ZM41.2853 11.656C41.2853 12.408 41.1093 13.056 40.7573 13.6C40.4213 14.128 39.8613 14.616 39.0773 15.064C38.5493 15.384 37.9333 15.624 37.2293 15.784C36.5253 15.944 35.8133 16.024 35.0933 16.024C34.3573 16.024 33.4453 15.784 32.3573 15.304C31.5733 14.92 30.9493 14.464 30.4853 13.936C30.0373 13.408 29.8133 12.832 29.8133 12.208C29.8133 11.776 29.9093 11.464 30.1013 11.272C30.2933 11.064 30.6053 10.96 31.0373 10.96C31.2613 10.96 31.4933 11.056 31.7333 11.248C31.9733 11.424 32.1173 11.6 32.1653 11.776C32.3893 12.432 32.7813 12.936 33.3413 13.288C33.9013 13.624 34.5973 13.792 35.4293 13.792C36.3893 13.792 37.1893 13.616 37.8293 13.264C38.4853 12.912 38.8133 12.44 38.8133 11.848C38.8133 11.272 38.4613 10.76 37.7573 10.312C37.0533 9.864 36.3333 9.552 35.5973 9.376C34.5413 9.088 33.6053 8.744 32.7893 8.344C31.9413 7.928 31.3093 7.416 30.8933 6.808C30.4773 6.2 30.2693 5.56 30.2693 4.888C30.2693 4.264 30.4853 3.632 30.9173 2.992C31.3493 2.336 31.8613 1.864 32.4533 1.576C32.7733 1.416 33.3173 1.248 34.0853 1.072C34.8693 0.88 35.4373 0.784 35.7893 0.784C36.2533 0.784 36.7653 0.84 37.3253 0.951999C37.8853 1.064 38.3413 1.224 38.6933 1.432C39.3973 1.832 39.9173 2.192 40.2533 2.512C40.5893 2.832 40.7573 3.232 40.7573 3.712C40.7573 4 40.6453 4.256 40.4213 4.48C40.2133 4.704 39.8453 4.816 39.3173 4.816C39.1893 4.816 39.0613 4.76 38.9333 4.648C38.8053 4.536 38.6453 4.368 38.4533 4.144C38.1973 3.808 37.9493 3.584 37.7093 3.472C37.4693 3.392 37.1173 3.304 36.6533 3.208C36.2053 3.112 35.8053 3.064 35.4533 3.064C35.0693 3.064 34.6693 3.144 34.2533 3.304C33.8373 3.464 33.4853 3.696 33.1973 4C32.9253 4.288 32.7893 4.624 32.7893 5.008C32.7893 5.328 32.9333 5.608 33.2213 5.848C33.5253 6.072 33.8853 6.256 34.3013 6.4C34.7813 6.592 35.3013 6.76 35.8613 6.904C36.5973 7.128 37.1973 7.336 37.6613 7.528C38.1413 7.704 38.6053 7.928 39.0533 8.2C39.8373 8.664 40.4053 9.144 40.7573 9.64C41.1093 10.12 41.2853 10.792 41.2853 11.656ZM42.5218 2.008C42.5218 1.32 43.0258 0.975999 44.0338 0.975999C44.4658 0.975999 45.2898 0.991999 46.5058 1.024C47.8498 1.088 48.8658 1.12 49.5538 1.12C50.1138 1.12 50.7938 1.088 51.5938 1.024C52.1378 0.991999 52.4818 0.975999 52.6258 0.975999C53.5058 1.008 54.2498 1.168 54.8578 1.456C55.0338 1.536 55.1778 1.632 55.2898 1.744C55.4018 1.856 55.4578 2.04 55.4578 2.296C55.4578 2.648 55.3458 2.952 55.1218 3.208C54.8978 3.448 54.6258 3.568 54.3058 3.568C53.9538 3.568 53.4418 3.52 52.7698 3.424C52.1778 3.312 51.6578 3.256 51.2098 3.256C50.7778 3.256 50.4498 3.264 50.2258 3.28C50.1778 3.808 50.1538 5.072 50.1538 7.072C50.1538 9.456 50.2258 11.872 50.3698 14.32L50.4178 15.016C50.4178 15.672 50.0418 16 49.2898 16C48.6978 16 48.2978 15.864 48.0898 15.592C47.8818 15.304 47.7778 14.872 47.7778 14.296C47.7778 13.16 47.7458 11.744 47.6818 10.048C47.6178 8.64 47.5858 7.64 47.5858 7.048C47.5858 6.648 47.6338 5.424 47.7298 3.376L44.9218 3.4C44.0258 3.4 43.4018 3.32 43.0498 3.16C42.6978 2.984 42.5218 2.6 42.5218 2.008ZM68.0229 7.408C68.0069 7.152 67.9989 6.768 67.9989 6.256V5.344C67.9989 4.736 67.9829 4.28 67.9509 3.976C67.9189 3.72 67.9029 3.056 67.9029 1.984C67.9029 1.6 68.0149 1.304 68.2389 1.096C68.4789 0.871999 68.7989 0.759999 69.1989 0.759999C69.7109 0.759999 70.0549 0.871999 70.2309 1.096C70.4069 1.32 70.4949 1.688 70.4949 2.2V3.112L70.4709 5.752C70.4549 6.264 70.4469 7.032 70.4469 8.056L70.4709 10.024C70.4869 10.328 70.4949 10.752 70.4949 11.296C70.4949 11.728 70.5109 12.344 70.5429 13.144C70.5749 13.88 70.5909 14.432 70.5909 14.8C70.5909 15.104 70.5029 15.384 70.3269 15.64C70.1669 15.896 69.9429 16.024 69.6549 16.024C68.5349 16.024 67.9749 15.648 67.9749 14.896C67.9749 14.48 67.9909 14.016 68.0229 13.504C68.0549 13.136 68.0709 12.576 68.0709 11.824C68.0709 11.296 68.0549 10.536 68.0229 9.544C67.2709 9.608 65.9749 9.64 64.1349 9.64C62.9829 9.64 62.0869 9.64 61.4469 9.64C60.8069 9.624 60.3429 9.584 60.0549 9.52L60.0309 12.28C60.0309 12.456 60.0709 12.928 60.1509 13.696C60.2309 14.208 60.2709 14.656 60.2709 15.04C60.2709 15.28 60.1269 15.512 59.8389 15.736C59.5669 15.944 59.3109 16.048 59.0709 16.048C58.4949 16.048 58.1029 15.912 57.8949 15.64C57.6869 15.352 57.5829 14.92 57.5829 14.344L57.5589 12.448C57.5429 12.224 57.5349 11.912 57.5349 11.512C57.5349 10.92 57.5189 10.112 57.4869 9.088C57.4549 8.16 57.4389 7.488 57.4389 7.072C57.4389 6.448 57.4549 5.576 57.4869 4.456C57.5189 3.4 57.5349 2.616 57.5349 2.104C57.5349 1.592 57.6629 1.248 57.9189 1.072C58.1749 0.895999 58.4629 0.808 58.7829 0.808C59.6789 0.808 60.1269 1.104 60.1269 1.696C60.1269 2.752 60.1029 3.76 60.0549 4.72C60.0229 5.936 60.0069 6.824 60.0069 7.384C60.4709 7.496 60.9589 7.568 61.4709 7.6C61.9829 7.632 62.7029 7.648 63.6309 7.648C65.5189 7.648 66.9829 7.568 68.0229 7.408ZM83.9681 12.952C84.2721 12.952 84.4961 13.072 84.6401 13.312C84.8001 13.536 84.8801 13.784 84.8801 14.056C84.8801 14.392 84.8241 14.632 84.7121 14.776C84.6161 14.904 84.4161 15.04 84.1121 15.184C83.4721 15.488 82.7521 15.704 81.9521 15.832C81.1681 15.96 80.1841 16.024 79.0001 16.024C77.5761 16.024 76.4801 15.784 75.7121 15.304C74.9601 14.808 74.4641 14.192 74.2241 13.456C73.9841 12.72 73.8641 11.864 73.8641 10.888V9.376C73.8641 8.336 73.8881 7.336 73.9361 6.376C74.0001 5.416 74.1201 4.296 74.2961 3.016C74.4081 2.248 74.7121 1.696 75.2081 1.36C75.7041 1.008 76.2481 0.831999 76.8401 0.831999C77.4801 0.831999 78.3601 0.816 79.4801 0.784L81.5681 0.759999C82.4161 0.759999 83.0401 0.783999 83.4401 0.831999C83.9201 0.927999 84.2721 1.04 84.4961 1.168C84.7361 1.28 84.8561 1.48 84.8561 1.768C84.8561 2.088 84.7441 2.4 84.5201 2.704C84.3121 3.008 83.9921 3.16 83.5601 3.16C83.0641 3.16 82.3521 3.128 81.4241 3.064C80.4961 3 79.8001 2.968 79.3361 2.968C78.7601 2.968 78.2961 2.992 77.9441 3.04C77.4961 3.072 77.1761 3.128 76.9841 3.208C76.7921 3.288 76.6801 3.424 76.6481 3.616C76.4241 5.264 76.3121 6.48 76.3121 7.264C76.6641 7.312 77.0401 7.336 77.4401 7.336C77.9521 7.336 78.8081 7.28 80.0081 7.168C80.8881 7.088 81.6161 7.048 82.1921 7.048C82.5601 7.048 82.8321 7.112 83.0081 7.24C83.1841 7.368 83.2721 7.544 83.2721 7.768C83.2721 8.12 83.1841 8.392 83.0081 8.584C82.8321 8.776 82.5121 8.92 82.0481 9.016C81.4881 9.128 80.7601 9.216 79.8641 9.28C78.9841 9.344 78.1441 9.376 77.3441 9.376C77.0401 9.376 76.6641 9.36 76.2161 9.328C76.2161 10.384 76.2641 11.216 76.3601 11.824C76.4721 12.432 76.6961 12.904 77.0321 13.24C77.3841 13.576 77.9121 13.744 78.6161 13.744C80.2001 13.744 81.4641 13.6 82.4081 13.312C83.0801 13.072 83.6001 12.952 83.9681 12.952ZM85.8812 2.008C85.8812 1.32 86.3852 0.975999 87.3932 0.975999C87.8252 0.975999 88.6492 0.991999 89.8652 1.024C91.2092 1.088 92.2252 1.12 92.9132 1.12C93.4732 1.12 94.1532 1.088 94.9532 1.024C95.4972 0.991999 95.8412 0.975999 95.9852 0.975999C96.8652 1.008 97.6092 1.168 98.2172 1.456C98.3932 1.536 98.5372 1.632 98.6492 1.744C98.7612 1.856 98.8172 2.04 98.8172 2.296C98.8172 2.648 98.7052 2.952 98.4812 3.208C98.2572 3.448 97.9852 3.568 97.6652 3.568C97.3132 3.568 96.8012 3.52 96.1292 3.424C95.5372 3.312 95.0172 3.256 94.5692 3.256C94.1372 3.256 93.8092 3.264 93.5852 3.28C93.5372 3.808 93.5132 5.072 93.5132 7.072C93.5132 9.456 93.5852 11.872 93.7292 14.32L93.7772 15.016C93.7772 15.672 93.4012 16 92.6492 16C92.0572 16 91.6572 15.864 91.4492 15.592C91.2412 15.304 91.1372 14.872 91.1372 14.296C91.1372 13.16 91.1052 11.744 91.0412 10.048C90.9772 8.64 90.9452 7.64 90.9452 7.048C90.9452 6.648 90.9932 5.424 91.0892 3.376L88.2812 3.4C87.3852 3.4 86.7612 3.32 86.4092 3.16C86.0572 2.984 85.8812 2.6 85.8812 2.008ZM104.662 2.752C104.614 3.776 104.59 4.76 104.59 5.704C104.59 6.68 104.654 8.112 104.782 10C104.798 10.288 104.83 10.872 104.878 11.752C104.926 12.616 104.95 13.408 104.95 14.128C105.11 14.112 105.278 14.088 105.454 14.056C105.646 14.024 105.79 14.008 105.886 14.008C106.238 14.008 106.518 14.096 106.726 14.272C106.934 14.448 107.038 14.72 107.038 15.088C107.038 15.328 106.942 15.512 106.75 15.64C106.558 15.768 106.222 15.864 105.742 15.928C105.278 15.976 104.598 16 103.702 16C102.71 16 101.966 15.968 101.47 15.904C100.974 15.84 100.63 15.72 100.438 15.544C100.246 15.352 100.15 15.072 100.15 14.704C100.15 14.432 100.238 14.248 100.414 14.152C100.59 14.056 100.838 14.008 101.158 14.008L101.662 14.032L102.454 14.08L102.334 11.248C102.238 9.712 102.19 8.304 102.19 7.024C102.19 6.336 102.214 5.392 102.262 4.192L102.31 2.872C101.766 2.904 101.342 2.92 101.038 2.92C100.686 2.92 100.446 2.856 100.318 2.728C100.206 2.6 100.15 2.336 100.15 1.936C100.15 1.488 100.454 1.2 101.062 1.072C101.686 0.943999 102.63 0.879999 103.894 0.879999C104.87 0.879999 105.598 0.911999 106.078 0.975999C106.574 1.04 106.822 1.184 106.822 1.408C106.822 1.952 106.702 2.312 106.462 2.488C106.238 2.648 105.798 2.728 105.142 2.728L104.662 2.752ZM121.463 3.112C121.703 3.4 121.871 3.632 121.967 3.808C122.063 3.984 122.111 4.152 122.111 4.312C122.111 4.504 121.983 4.728 121.727 4.984C121.487 5.24 121.247 5.368 121.007 5.368C120.687 5.368 120.431 5.32 120.239 5.224C120.047 5.128 119.887 4.976 119.759 4.768C119.455 4.288 119.103 3.864 118.703 3.496C118.303 3.112 117.767 2.92 117.095 2.92C116.439 2.92 115.703 3.072 114.887 3.376C114.071 3.68 113.471 4.056 113.087 4.504C112.223 5.56 111.791 6.96 111.791 8.704C111.791 10.096 112.223 11.288 113.087 12.28C113.999 13.304 115.151 13.816 116.543 13.816C117.183 13.816 117.879 13.704 118.631 13.48C119.399 13.24 120.007 12.856 120.455 12.328H120.431C120.719 12.024 121.079 11.872 121.511 11.872C121.767 11.872 122.007 11.984 122.231 12.208C122.471 12.432 122.591 12.656 122.591 12.88C122.591 13.12 122.551 13.336 122.471 13.528C122.407 13.704 122.279 13.904 122.087 14.128C121.431 14.848 120.591 15.352 119.567 15.64C118.559 15.912 117.407 16.048 116.111 16.048C115.039 16.048 114.007 15.792 113.015 15.28C112.039 14.768 111.231 14.12 110.591 13.336C110.271 12.872 109.959 12.208 109.655 11.344C109.367 10.464 109.223 9.752 109.223 9.208C109.223 7.816 109.431 6.496 109.847 5.248C110.279 3.984 110.919 2.976 111.767 2.224C112.327 1.712 113.135 1.328 114.191 1.072C115.247 0.816 116.215 0.688 117.095 0.688C117.799 0.688 118.399 0.792 118.895 1C119.407 1.192 119.847 1.456 120.215 1.792C120.583 2.112 120.999 2.552 121.463 3.112ZM135.949 11.656C135.949 12.408 135.773 13.056 135.421 13.6C135.085 14.128 134.525 14.616 133.741 15.064C133.213 15.384 132.597 15.624 131.893 15.784C131.189 15.944 130.477 16.024 129.757 16.024C129.021 16.024 128.109 15.784 127.021 15.304C126.237 14.92 125.613 14.464 125.149 13.936C124.701 13.408 124.477 12.832 124.477 12.208C124.477 11.776 124.573 11.464 124.765 11.272C124.957 11.064 125.269 10.96 125.701 10.96C125.925 10.96 126.157 11.056 126.397 11.248C126.637 11.424 126.781 11.6 126.829 11.776C127.053 12.432 127.445 12.936 128.005 13.288C128.565 13.624 129.261 13.792 130.093 13.792C131.053 13.792 131.853 13.616 132.493 13.264C133.149 12.912 133.477 12.44 133.477 11.848C133.477 11.272 133.125 10.76 132.421 10.312C131.717 9.864 130.997 9.552 130.261 9.376C129.205 9.088 128.269 8.744 127.453 8.344C126.605 7.928 125.973 7.416 125.557 6.808C125.141 6.2 124.933 5.56 124.933 4.888C124.933 4.264 125.149 3.632 125.581 2.992C126.013 2.336 126.525 1.864 127.117 1.576C127.437 1.416 127.981 1.248 128.749 1.072C129.533 0.88 130.101 0.784 130.453 0.784C130.901 0.784 131.373 0.84 131.869 0.951999C132.365 1.064 132.789 1.224 133.141 1.432C133.845 1.832 134.365 2.192 134.701 2.512C135.037 2.832 135.205 3.232 135.205 3.712C135.205 4 135.093 4.256 134.869 4.48C134.661 4.704 134.293 4.816 133.765 4.816C133.637 4.816 133.509 4.76 133.381 4.648C133.253 4.536 133.093 4.368 132.901 4.144C132.645 3.808 132.397 3.584 132.157 3.472C131.901 3.376 131.581 3.288 131.197 3.208C130.813 3.112 130.453 3.064 130.117 3.064C129.733 3.064 129.333 3.144 128.917 3.304C128.501 3.464 128.149 3.696 127.861 4C127.589 4.288 127.453 4.624 127.453 5.008C127.453 5.328 127.597 5.608 127.885 5.848C128.189 6.072 128.549 6.256 128.965 6.4C129.445 6.592 129.965 6.76 130.525 6.904C131.261 7.128 131.861 7.336 132.325 7.528C132.805 7.704 133.269 7.928 133.717 8.2C134.501 8.664 135.069 9.144 135.421 9.64C135.773 10.12 135.949 10.792 135.949 11.656Z" fill="black"/>
</svg>
