<svg width="50" height="50" viewBox="0 0 50 50" fill="none" xmlns="http://www.w3.org/2000/svg">
<circle cx="25" cy="25" r="24.5" fill="#CA1435" stroke="#CA1435"/>
<g clip-path="url(#clip0)">
<path d="M37.5 21.875H33.2548L28.7949 14.4417C28.5737 14.0724 28.0937 13.9519 27.723 14.1739C27.3529 14.3959 27.2332 14.8758 27.4552 15.2458L31.4327 21.875H18.5674L22.5449 15.2458C22.7669 14.8757 22.6471 14.3959 22.2771 14.1739C21.9055 13.9518 21.4272 14.0724 21.2052 14.4416L16.7452 21.8749H12.5V23.4375H14.1956L16.1804 34.0248C16.3879 35.1333 17.3568 35.9375 18.4845 35.9375H31.5155C32.6432 35.9375 33.6121 35.1333 33.8188 34.0256L35.8043 23.4375H37.5001C37.5 23.4375 37.5 21.875 37.5 21.875V21.875ZM32.283 33.7379C32.2144 34.1072 31.8916 34.375 31.5155 34.375H18.4845C18.1084 34.375 17.7857 34.1072 17.7163 33.7372L15.7849 23.4375H34.2152L32.283 33.7379V33.7379Z" fill="white"/>
</g>
<defs>
<clipPath id="clip0">
<rect width="25" height="25" fill="white" transform="translate(12.5 12.5)"/>
</clipPath>
</defs>
</svg>
