<svg width="30" height="30" viewBox="0 0 30 30" fill="none" xmlns="http://www.w3.org/2000/svg">
<circle cx="15" cy="15" r="14.5" stroke="black"/>
<path d="M22.2 13.0875H19.6528L16.9769 8.62751C16.8441 8.40596 16.5562 8.33363 16.3337 8.46684C16.1117 8.60005 16.0399 8.88797 16.1731 9.10999L18.5596 13.0875H10.8404L13.2269 9.10996C13.3601 8.88794 13.2882 8.60002 13.0662 8.46681C12.8433 8.3336 12.5563 8.40593 12.423 8.62748L9.74709 13.0875H7.19995V14.025H8.21733L9.4082 20.3773C9.5327 21.0425 10.1141 21.525 10.7907 21.525H18.6093C19.2858 21.525 19.8672 21.0425 19.9913 20.3778L21.1825 14.025H22.2C22.2 14.025 22.2 13.0875 22.2 13.0875V13.0875ZM19.0698 20.2053C19.0286 20.4268 18.8349 20.5875 18.6092 20.5875H10.7907C10.565 20.5875 10.3714 20.4268 10.3297 20.2048L9.17087 14.025H20.2291L19.0698 20.2053V20.2053Z" fill="black"/>
</svg>
