<svg width="80" height="80" viewBox="0 0 80 80" fill="none" xmlns="http://www.w3.org/2000/svg">
<circle cx="40" cy="40" r="40" fill="url(#paint0_linear)"/>
<path d="M61.4998 37.5941L60.205 32.4149C60.559 32.3397 60.8246 32.0256 60.8246 31.6494V30.8143C60.8246 29.0012 59.3495 27.5262 57.5365 27.5262H51.6389V25.8038C51.6389 24.9116 50.9131 24.1858 50.0209 24.1858H19.9582C19.066 24.1858 18.3402 24.9116 18.3402 25.8038V40.0001C18.3402 40.4324 18.6907 40.783 19.1231 40.783C19.5555 40.783 19.9061 40.4325 19.9061 40.0001V25.8038C19.9061 25.775 19.9294 25.7516 19.9582 25.7516H50.0208C50.0496 25.7516 50.0729 25.775 50.0729 25.8038V40.0002C50.0729 40.4326 50.4234 40.7832 50.8559 40.7832C51.2882 40.7832 51.6388 40.4327 51.6388 40.0002V39.1127H60.874C60.8748 39.1127 60.8754 39.1129 60.8761 39.1129C60.8769 39.1129 60.8775 39.1128 60.8782 39.1128C62.0146 39.1136 62.9796 39.8595 63.311 40.8874H60.8767C60.4443 40.8874 60.0937 41.2378 60.0937 41.6703V43.3404C60.0937 44.693 61.1941 45.7934 62.5468 45.7934H63.4341V49.238H61.387C60.7145 47.2963 58.8687 45.8977 56.7013 45.8977C54.5338 45.8977 52.6879 47.2963 52.0155 49.238H51.6386V43.3403C51.6386 42.908 51.2881 42.5574 50.8557 42.5574C50.4233 42.5574 50.0728 42.9079 50.0728 43.3403V49.2378H33.8298C33.1573 47.2961 31.3115 45.8975 29.144 45.8975C26.9766 45.8975 25.1307 47.2961 24.4583 49.2378H19.9582C19.9294 49.2378 19.9061 49.2145 19.9061 49.1857V47.4633H23.2985C23.7309 47.4633 24.0814 47.1128 24.0814 46.6804C24.0814 46.248 23.731 45.8975 23.2985 45.8975H15.7829C15.3506 45.8975 15 46.248 15 46.6804C15 47.1128 15.3505 47.4633 15.7829 47.4633H18.3403V49.1857C18.3403 50.0779 19.0661 50.8037 19.9583 50.8037H24.1872C24.187 50.821 24.1858 50.8383 24.1858 50.8558C24.1858 53.5898 26.4102 55.814 29.144 55.814C31.8779 55.814 34.1022 53.5898 34.1022 50.8558C34.1022 50.8382 34.1011 50.821 34.1009 50.8037H51.7444C51.7442 50.821 51.7431 50.8383 51.7431 50.8558C51.7431 53.5898 53.9674 55.814 56.7013 55.814C59.4352 55.814 61.6595 53.5898 61.6595 50.8558C61.6595 50.8382 61.6583 50.821 61.6581 50.8037H64.217C64.6493 50.8037 64.9999 50.4532 64.9999 50.0208V41.6701C65 39.6084 63.4788 37.8954 61.4998 37.5941ZM51.6389 29.0919H57.5365C58.4862 29.0919 59.2589 29.8646 59.2589 30.8143V30.8665H51.6389V29.0919ZM51.6389 37.547V32.4322H58.5954L59.8741 37.547H51.6389ZM29.144 54.2485C27.2734 54.2485 25.7516 52.7267 25.7516 50.856C25.7516 48.9853 27.2734 47.4635 29.144 47.4635C31.0146 47.4635 32.5365 48.9853 32.5365 50.856C32.5365 52.7267 31.0146 54.2485 29.144 54.2485ZM56.7015 54.2485C54.8309 54.2485 53.309 52.7267 53.309 50.856C53.309 48.9853 54.8309 47.4635 56.7015 47.4635C58.5721 47.4635 60.0939 48.9853 60.0939 50.856C60.0939 52.7267 58.5721 54.2485 56.7015 54.2485ZM63.4343 44.2276H62.547C62.0577 44.2276 61.6597 43.8295 61.6597 43.3403V42.453H63.4342V44.2276H63.4343Z" fill="white"/>
<path d="M29.144 49.238C28.2518 49.238 27.5261 49.9638 27.5261 50.856C27.5261 51.7482 28.2518 52.474 29.144 52.474C30.0362 52.474 30.762 51.7482 30.762 50.856C30.762 49.9638 30.0362 49.238 29.144 49.238Z" fill="white"/>
<path d="M56.7015 49.238C55.8093 49.238 55.0835 49.9638 55.0835 50.856C55.0835 51.7482 55.8093 52.474 56.7015 52.474C57.5937 52.474 58.3194 51.7482 58.3194 50.856C58.3194 49.9638 57.5937 49.238 56.7015 49.238Z" fill="white"/>
<path d="M47.5156 45.8977H35.8246C35.3923 45.8977 35.0417 46.2482 35.0417 46.6806C35.0417 47.113 35.3922 47.4635 35.8246 47.4635H47.5156C47.948 47.4635 48.2985 47.113 48.2985 46.6806C48.2985 46.2482 47.9481 45.8977 47.5156 45.8977Z" fill="white"/>
<path d="M27.4739 42.5574H17.453C17.0207 42.5574 16.6701 42.9079 16.6701 43.3403C16.6701 43.7727 17.0206 44.1232 17.453 44.1232H27.4739C27.9063 44.1232 28.2569 43.7727 28.2569 43.3403C28.2569 42.9079 27.9063 42.5574 27.4739 42.5574Z" fill="white"/>
<path d="M42.2237 31.9307C41.9181 31.625 41.4223 31.625 41.1166 31.9307L34.1545 38.8928L30.5327 35.271C30.2269 34.9652 29.7312 34.9652 29.4256 35.271C29.1198 35.5767 29.1198 36.0724 29.4256 36.3781L33.601 40.5535C33.7538 40.7064 33.9542 40.7828 34.1545 40.7828C34.3548 40.7828 34.5553 40.7064 34.708 40.5535L42.2236 33.0379C42.5294 32.732 42.5294 32.2364 42.2237 31.9307Z" fill="white"/>
<defs>
<linearGradient id="paint0_linear" x1="40" y1="0" x2="40" y2="80" gradientUnits="userSpaceOnUse">
<stop stop-color="#733932"/>
<stop offset="1" stop-color="#E3183D"/>
</linearGradient>
</defs>
</svg>
