<svg width="80" height="80" viewBox="0 0 80 80" fill="none" xmlns="http://www.w3.org/2000/svg">
<circle cx="40" cy="40" r="40" fill="url(#paint0_linear)"/>
<path d="M47.7805 41.8004C47.6912 40.9963 46.9668 40.4168 46.1628 40.5062L27.5177 42.5778C26.7136 42.6672 26.1341 43.3914 26.2234 44.1956C26.3067 44.9447 26.9409 45.4989 27.6776 45.4989C27.7316 45.4989 27.7863 45.4959 27.8412 45.4898L46.4864 43.4182C47.2905 43.3287 47.87 42.6045 47.7805 41.8004Z" fill="white"/>
<path d="M41.1452 47.1413C39.4277 45.4239 36.648 45.4237 34.9302 47.1413C33.2166 48.8549 33.2166 51.6429 34.9302 53.3565C36.6478 55.0739 39.4275 55.0742 41.1452 53.3565C42.8588 51.6429 42.8588 48.8549 41.1452 47.1413ZM39.0735 51.2848C38.5012 51.8573 37.5743 51.8573 37.0019 51.2848C36.4308 50.7137 36.4308 49.7842 37.0019 49.2131C37.5743 48.6406 38.5011 48.6406 39.0735 49.2131C39.6446 49.7842 39.6446 50.7135 39.0735 51.2848Z" fill="white"/>
<path d="M39.0736 32.6396C37.3602 30.9261 34.5721 30.9261 32.8585 32.6396C31.1451 34.3531 31.1451 37.1412 32.8585 38.8547C34.572 40.5682 37.3602 40.5682 39.0736 38.8547C40.7872 37.1412 40.7872 34.3532 39.0736 32.6396ZM37.0021 36.783C36.4309 37.3541 35.5015 37.3541 34.9304 36.783C34.3593 36.2118 34.3591 35.2824 34.9303 34.7113C35.5015 34.1402 36.4308 34.1401 37.0021 34.7113C37.5732 35.2824 37.5732 36.2118 37.0021 36.783Z" fill="white"/>
<path d="M64.5709 15.4292C63.999 14.8571 63.0713 14.8571 62.4992 15.4292L58.2327 19.6958C57.9704 19.5708 57.6936 19.4701 57.4046 19.3979L44.1458 16.1222C42.6569 15.7501 41.0577 16.1929 39.9724 17.2782L16.2853 40.9264C14.5719 42.6399 14.5719 45.4279 16.2853 47.1415L32.8588 63.7149C34.5723 65.4284 37.3603 65.4285 39.0739 63.7149L62.7221 40.0277C63.8074 38.9424 64.2503 37.3432 63.878 35.8542L60.6024 22.5955C60.5301 22.3066 60.4295 22.0297 60.3045 21.7674L64.5711 17.5008C65.143 16.9288 65.143 16.0012 64.5709 15.4292ZM61.0355 36.565C61.1596 37.0613 61.0119 37.5943 60.6502 37.9561L37.002 61.6433C36.4308 62.2144 35.5015 62.2144 34.9303 61.6433L18.3569 45.0697C17.7857 44.4986 17.7857 43.5692 18.3569 42.998L42.0441 19.3499C42.3212 19.0728 42.6987 18.9214 43.0833 18.9214C43.2008 18.9214 43.3191 18.9355 43.4352 18.9645L55.8893 22.039L52.3615 25.5669C50.7282 24.7889 48.7107 25.0743 47.3605 26.4245C45.6469 28.138 45.6469 30.926 47.3605 32.6396C48.2171 33.4963 49.3426 33.9247 50.468 33.9247C51.5933 33.9247 52.7188 33.4964 53.5754 32.6396C54.9259 31.2892 55.2112 29.2718 54.4331 27.6385L57.9609 24.1107L61.0355 36.565ZM51.5039 30.568C50.9328 31.1391 50.0034 31.1392 49.4322 30.568C48.8611 29.9969 48.8611 29.0674 49.4322 28.4963C49.7178 28.2107 50.0928 28.068 50.468 28.068C50.843 28.068 51.2182 28.2108 51.5037 28.4962L51.5038 28.4963L51.5039 28.4964C52.0751 29.0675 52.075 29.9969 51.5039 30.568Z" fill="white"/>
<defs>
<linearGradient id="paint0_linear" x1="40" y1="0" x2="40" y2="80" gradientUnits="userSpaceOnUse">
<stop stop-color="#733932"/>
<stop offset="1" stop-color="#E3183D"/>
</linearGradient>
</defs>
</svg>
