<svg width="222" height="57" viewBox="0 0 222 57" fill="none" xmlns="http://www.w3.org/2000/svg">
<path d="M41.3749 31.2978C39.5825 29.3241 36.7618 29.1559 34.7924 30.7865C33.009 29.3099 30.5278 29.3099 28.7444 30.7865C26.9611 29.3099 24.4798 29.3099 22.6964 30.7865C20.9131 29.3099 18.4318 29.3099 16.6485 30.7865C14.8651 29.3099 12.3839 29.3099 10.6005 30.7865C8.63106 29.1551 5.81048 29.3249 4.01795 31.2978C3.82974 31.5044 3.75411 31.8042 3.81839 32.0881L8.35437 52.0748C8.43832 52.4454 8.74064 52.7061 9.08772 52.7061H36.3037C36.6507 52.7061 36.9523 52.4454 37.0377 52.0748L41.5737 32.0881C41.6388 31.8042 41.5624 31.5044 41.3749 31.2978ZM35.7132 51.0405H9.67817L5.39619 32.173C6.77665 30.9705 8.79135 31.0746 10.066 32.4753C10.3609 32.8009 10.8395 32.8009 11.1342 32.4753C12.5072 30.9655 14.7411 30.9655 16.114 32.4753C16.4089 32.8009 16.8875 32.8009 17.1822 32.4753C18.5552 30.9655 20.7891 30.9655 22.162 32.4753C22.4569 32.8009 22.9355 32.8009 23.2302 32.4753C24.6024 30.9655 26.8379 30.9655 28.2092 32.4753C28.5048 32.8009 28.9827 32.8009 29.2782 32.4753C30.6504 30.9655 32.8859 30.9655 34.2572 32.4753C34.5528 32.8009 35.0307 32.8009 35.3262 32.4753C36.5993 31.0753 38.6148 30.973 39.996 32.173L35.7132 51.0405Z" fill="black"/>
<path d="M44.3369 24.5231C43.581 23.5247 42.5255 22.9 41.3568 22.7576C41.2086 22.3563 40.9818 21.7383 40.7338 21.0413C37.8738 12.9583 30.9376 7.73593 23.0623 7.73593C23.0533 7.7368 23.0457 7.73593 23.0374 7.73593C15.2756 7.73593 8.17218 13.0874 5.35613 21.0654L4.78536 22.7268H4.76568C2.36915 22.666 0.314375 24.6089 0.0187971 27.2729C-0.090072 28.6021 0.277317 29.8987 1.05376 30.9238C1.83021 31.949 2.92182 32.5786 4.12612 32.6993C4.26903 32.7134 4.41487 32.7176 4.55708 32.7193L4.54724 31.0537C4.45574 31.0579 4.36053 31.0504 4.26451 31.0396C3.46014 30.9596 2.7329 30.5391 2.21497 29.8562C1.69714 29.1734 1.45218 28.3089 1.52248 27.4486C1.72134 25.6648 3.10782 24.3532 4.7491 24.3915H5.30852C5.62227 24.3915 5.90429 24.1774 6.01537 23.8535L6.76912 21.6616C9.3584 14.3256 15.8948 9.40141 23.0397 9.40141C23.0473 9.40141 23.0541 9.40141 23.0624 9.40141C30.3094 9.40141 36.6938 14.2073 39.3262 21.6474C39.7677 22.8891 40.1404 23.8785 40.1404 23.8785C40.2576 24.1891 40.5335 24.3915 40.8389 24.3915C40.8397 24.3915 40.8404 24.3915 40.8412 24.3915C40.9357 24.3856 41.0325 24.3957 41.127 24.4056C41.9313 24.4856 42.6594 24.9061 43.1765 25.589C43.6943 26.2727 43.9393 27.1363 43.869 27.9966C43.674 29.7529 42.3328 31.0546 40.7339 31.0546C40.709 31.0546 40.6848 31.0546 40.6598 31.0537L40.6257 32.7193C40.662 32.7202 40.6983 32.7202 40.7354 32.7202C43.0986 32.7202 45.0816 30.7956 45.3712 28.174C45.4808 26.8449 45.1126 25.5475 44.3369 24.5231Z" fill="black"/>
<path d="M23.451 35.2169H21.939V48.5414H23.451V35.2169Z" fill="black"/>
<path d="M18.9171 35.1709L17.4079 35.276L18.1554 48.6013L19.6645 48.4961L18.9171 35.1709Z" fill="black"/>
<path d="M31.0108 35.1184L29.5054 48.4404L31.0057 48.6477L32.511 35.3258L31.0108 35.1184Z" fill="black"/>
<path d="M26.474 35.1687L25.7166 48.491L27.2256 48.595L27.9829 35.2728L26.474 35.1687Z" fill="black"/>
<path d="M9.83181 35.0663L8.34564 35.3732L10.6139 48.6986L12.1 48.3916L9.83181 35.0663Z" fill="black"/>
<path d="M14.3729 35.1155L12.8726 35.3229L14.378 48.6448L15.8783 48.4375L14.3729 35.1155Z" fill="black"/>
<path d="M35.5593 35.0614L33.2875 48.3848L34.7727 48.6921L37.0446 35.3687L35.5593 35.0614Z" fill="black"/>
<path d="M31.7731 9.72101C31.7731 6.22101 33.1348 -0.278994 38.5816 1.22101" stroke="#4F1515"/>
<path d="M31.3192 7.22101C33.5754 7.22101 35.4043 9.23573 35.4043 11.721C35.4043 14.2063 33.5754 16.221 31.3192 16.221C29.0631 16.221 27.2341 14.2063 27.2341 11.721C27.2341 9.23573 29.0631 7.22101 31.3192 7.22101Z" fill="#E3183D"/>
<path d="M70.504 18.656C70.504 19.408 70.328 20.056 69.976 20.6C69.64 21.128 69.08 21.616 68.296 22.064C67.768 22.384 67.152 22.624 66.448 22.784C65.744 22.944 65.032 23.024 64.312 23.024C63.576 23.024 62.664 22.784 61.576 22.304C60.792 21.92 60.168 21.464 59.704 20.936C59.256 20.408 59.032 19.832 59.032 19.208C59.032 18.776 59.128 18.464 59.32 18.272C59.512 18.064 59.824 17.96 60.256 17.96C60.48 17.96 60.712 18.056 60.952 18.248C61.192 18.424 61.336 18.6 61.384 18.776C61.608 19.432 62 19.936 62.56 20.288C63.12 20.624 63.816 20.792 64.648 20.792C65.608 20.792 66.408 20.616 67.048 20.264C67.704 19.912 68.032 19.44 68.032 18.848C68.032 18.272 67.68 17.76 66.976 17.312C66.272 16.864 65.552 16.552 64.816 16.376C63.76 16.088 62.824 15.744 62.008 15.344C61.16 14.928 60.528 14.416 60.112 13.808C59.696 13.2 59.488 12.56 59.488 11.888C59.488 11.264 59.704 10.632 60.136 9.99201C60.568 9.33601 61.08 8.86401 61.672 8.57601C61.992 8.41601 62.536 8.24801 63.304 8.07201C64.088 7.88001 64.656 7.78401 65.008 7.78401C65.472 7.78401 65.984 7.84001 66.544 7.95201C67.104 8.06401 67.56 8.22401 67.912 8.43201C68.616 8.83201 69.136 9.19201 69.472 9.51201C69.808 9.83201 69.976 10.232 69.976 10.712C69.976 11 69.864 11.256 69.64 11.48C69.432 11.704 69.064 11.816 68.536 11.816C68.408 11.816 68.28 11.76 68.152 11.648C68.024 11.536 67.864 11.368 67.672 11.144C67.416 10.808 67.168 10.584 66.928 10.472C66.688 10.392 66.336 10.304 65.872 10.208C65.424 10.112 65.024 10.064 64.672 10.064C64.288 10.064 63.888 10.144 63.472 10.304C63.056 10.464 62.704 10.696 62.416 11C62.144 11.288 62.008 11.624 62.008 12.008C62.008 12.328 62.152 12.608 62.44 12.848C62.744 13.072 63.104 13.256 63.52 13.4C64 13.592 64.52 13.76 65.08 13.904C65.816 14.128 66.416 14.336 66.88 14.528C67.36 14.704 67.824 14.928 68.272 15.2C69.056 15.664 69.624 16.144 69.976 16.64C70.328 17.12 70.504 17.792 70.504 18.656ZM88.8526 9.12801C88.9486 8.79201 89.0926 8.52001 89.2846 8.31201C89.4766 8.08801 89.6846 7.97601 89.9086 7.97601C90.4526 7.97601 90.8446 8.08001 91.0846 8.28801C91.3246 8.49601 91.4446 8.85601 91.4446 9.36801C91.4446 9.51201 91.3326 9.92001 91.1086 10.592C90.6126 12.112 90.0686 13.992 89.4766 16.232C89.3326 16.744 89.2126 17.192 89.1166 17.576C89.0366 17.96 88.9646 18.28 88.9006 18.536C88.5166 20.184 88.1806 21.424 87.8926 22.256C87.7966 22.496 87.6286 22.688 87.3886 22.832C87.1486 22.96 86.8926 23.024 86.6206 23.024C86.3486 23.024 86.0766 22.968 85.8046 22.856C85.5486 22.728 85.3646 22.584 85.2526 22.424C84.7726 21.48 84.1646 20 83.4286 17.984C82.6926 15.952 82.1246 14.032 81.7246 12.224C81.3566 13.952 80.9566 15.504 80.5246 16.88C80.1086 18.256 79.6286 19.704 79.0846 21.224C79.0206 21.416 78.9566 21.6 78.8926 21.776C78.8286 21.936 78.7726 22.096 78.7246 22.256C78.6126 22.496 78.4526 22.688 78.2446 22.832C78.0366 22.96 77.8046 23.024 77.5486 23.024C77.2606 23.024 76.9806 22.968 76.7086 22.856C76.4366 22.728 76.2526 22.584 76.1566 22.424C75.9486 22.072 75.7246 21.528 75.4846 20.792C75.2606 20.056 74.9566 19.024 74.5726 17.696L73.9726 15.656C73.5566 14.328 73.1966 12.968 72.8926 11.576C72.5886 10.184 72.4366 9.35201 72.4366 9.08001C72.4366 8.74401 72.6046 8.48001 72.9406 8.28801C73.2766 8.08001 73.6126 7.97601 73.9486 7.97601C74.1406 7.97601 74.3406 8.04001 74.5486 8.16801C74.7566 8.28001 74.8926 8.48001 74.9566 8.76801C75.5166 11.76 76.3406 15.232 77.4286 19.184C77.7006 18.56 77.9566 17.824 78.1966 16.976C78.4526 16.112 78.7966 14.904 79.2286 13.352C79.7886 11.32 80.2126 9.87201 80.5006 9.00801C80.5646 8.76801 80.7246 8.57601 80.9806 8.43201C81.2526 8.28801 81.5246 8.21601 81.7966 8.21601C82.1486 8.21601 82.4366 8.31201 82.6606 8.50401C82.8846 8.68001 83.0286 8.87201 83.0926 9.08001L83.2846 9.82401C83.7806 11.696 84.2766 13.448 84.7726 15.08C85.2686 16.712 85.7726 18.08 86.2846 19.184C86.6046 18.24 86.9886 16.728 87.4366 14.648L87.7966 13.064C88.2286 11.368 88.5806 10.056 88.8526 9.12801ZM103.576 19.736C103.88 19.736 104.104 19.856 104.248 20.096C104.408 20.32 104.488 20.568 104.488 20.84C104.488 21.176 104.432 21.416 104.32 21.56C104.224 21.688 104.032 21.824 103.744 21.968C103.072 22.288 102.24 22.544 101.248 22.736C100.256 22.928 99.1918 23.024 98.0558 23.024C96.6318 23.024 95.5838 22.784 94.9118 22.304C94.2558 21.824 93.8478 21.248 93.6878 20.576C93.5438 19.888 93.4718 18.992 93.4718 17.888C93.4718 16.704 93.5198 15.544 93.6158 14.408C93.7118 13.256 93.8798 11.792 94.1198 10.016C94.2318 9.24801 94.5358 8.69601 95.0318 8.36001C95.5278 8.00801 96.0718 7.83201 96.6638 7.83201C97.1598 7.83201 97.9678 7.81601 99.0878 7.78401L101.176 7.76001C102.04 7.76001 102.664 7.78401 103.048 7.83201C103.528 7.92801 103.88 8.04001 104.104 8.16801C104.344 8.28001 104.464 8.48001 104.464 8.76801C104.464 9.08801 104.352 9.40001 104.128 9.70401C103.92 10.008 103.6 10.16 103.168 10.16C102.672 10.16 101.96 10.128 101.032 10.064C100.104 10 99.4078 9.96801 98.9438 9.96801C98.5438 9.96801 98.1518 9.99201 97.7678 10.04C97.3198 10.072 96.9998 10.128 96.8078 10.208C96.6158 10.288 96.5038 10.424 96.4718 10.616C96.2478 12.264 96.1358 13.48 96.1358 14.264C96.5038 14.312 96.8638 14.336 97.2158 14.336C97.6638 14.336 98.1438 14.312 98.6558 14.264C99.1678 14.216 99.4958 14.184 99.6398 14.168C100.488 14.088 101.216 14.048 101.824 14.048C102.176 14.048 102.44 14.112 102.616 14.24C102.808 14.368 102.904 14.544 102.904 14.768C102.904 15.12 102.808 15.392 102.616 15.584C102.44 15.776 102.12 15.92 101.656 16.016C101.096 16.128 100.4 16.216 99.5678 16.28C98.7518 16.344 97.9518 16.376 97.1678 16.376C96.8958 16.376 96.5198 16.36 96.0398 16.328C95.9918 17.304 95.9678 18.208 95.9678 19.04C95.9678 20.176 96.7198 20.744 98.2238 20.744C99.0238 20.744 99.6878 20.688 100.216 20.576C100.744 20.464 101.352 20.304 102.04 20.096C102.68 19.856 103.192 19.736 103.576 19.736ZM117.898 21.464C117.914 21.8 117.874 22.04 117.778 22.184C117.682 22.312 117.49 22.448 117.202 22.592C116.77 22.8 116.258 22.936 115.666 23C115.09 23.064 114.346 23.096 113.434 23.096H111.802C110.378 23.096 109.322 22.856 108.634 22.376C107.946 21.88 107.514 21.288 107.338 20.6C107.162 19.912 107.058 19.024 107.026 17.936C107.01 17.568 107.002 17.024 107.002 16.304C107.002 14.736 107.138 12.64 107.41 10.016C107.49 9.24801 107.77 8.69601 108.25 8.36001C108.73 8.00801 109.274 7.83201 109.882 7.83201C110.378 7.83201 111.186 7.81601 112.306 7.78401L114.418 7.76001C115.282 7.76001 115.906 7.78401 116.29 7.83201C116.77 7.92801 117.13 8.04001 117.37 8.16801C117.61 8.28001 117.738 8.48001 117.754 8.76801C117.754 9.08801 117.65 9.40001 117.442 9.70401C117.234 10.008 116.914 10.16 116.482 10.16C115.986 10.16 115.274 10.128 114.346 10.064C113.418 10 112.714 9.96801 112.234 9.96801C111.802 9.96801 111.41 9.99201 111.058 10.04C110.61 10.072 110.29 10.128 110.098 10.208C109.906 10.288 109.802 10.424 109.786 10.616C109.61 12.36 109.538 13.576 109.57 14.264C109.938 14.312 110.306 14.336 110.674 14.336C111.042 14.336 111.546 14.304 112.186 14.24C112.346 14.224 112.546 14.208 112.786 14.192C113.026 14.176 113.298 14.168 113.602 14.168C113.778 14.168 114.058 14.184 114.442 14.216L115.186 14.24C115.922 14.24 116.29 14.504 116.29 15.032C116.29 15.352 116.202 15.608 116.026 15.8C115.85 15.992 115.538 16.136 115.09 16.232C114.482 16.344 113.498 16.4 112.138 16.4H110.674C110.37 16.4 109.994 16.384 109.546 16.352C109.53 16.64 109.522 17.056 109.522 17.6C109.522 18.304 109.53 18.8 109.546 19.088C109.594 20.208 110.37 20.768 111.874 20.768C112.386 20.768 112.93 20.784 113.506 20.816L114.394 20.84C114.81 20.84 115.154 20.8 115.426 20.72C115.698 20.624 115.962 20.544 116.218 20.48C116.49 20.4 116.738 20.36 116.962 20.36C117.266 20.36 117.498 20.48 117.658 20.72C117.818 20.944 117.898 21.192 117.898 21.464ZM118.944 9.00801C118.944 8.32001 119.448 7.97601 120.456 7.97601C120.888 7.97601 121.712 7.99201 122.928 8.02401C124.272 8.08801 125.288 8.12001 125.976 8.12001C126.536 8.12001 127.216 8.08801 128.016 8.02401C128.56 7.99201 128.904 7.97601 129.048 7.97601C129.928 8.00801 130.672 8.16801 131.28 8.45601C131.456 8.53601 131.6 8.63201 131.712 8.74401C131.824 8.85601 131.88 9.04001 131.88 9.29601C131.88 9.64801 131.768 9.95201 131.544 10.208C131.32 10.448 131.048 10.568 130.728 10.568C130.376 10.568 129.864 10.52 129.192 10.424C128.6 10.312 128.08 10.256 127.632 10.256C127.2 10.256 126.872 10.264 126.648 10.28C126.6 10.808 126.576 12.072 126.576 14.072C126.576 16.456 126.648 18.872 126.792 21.32L126.84 22.016C126.84 22.672 126.464 23 125.712 23C125.12 23 124.72 22.864 124.512 22.592C124.304 22.304 124.2 21.872 124.2 21.296C124.2 20.16 124.168 18.744 124.104 17.048C124.04 15.64 124.008 14.64 124.008 14.048C124.008 13.648 124.056 12.424 124.152 10.376L121.344 10.4C120.448 10.4 119.824 10.32 119.472 10.16C119.12 9.98401 118.944 9.60001 118.944 9.00801ZM70.672 51.64C70.464 51.368 70.288 51.072 70.144 50.752C70 50.416 69.848 50.016 69.688 49.552C69.656 49.472 69.56 49.232 69.4 48.832C69.256 48.432 69.088 48.088 68.896 47.8C67.888 47.944 67.064 48.016 66.424 48.016C66.072 48.016 65.68 48.008 65.248 47.992C64.832 47.96 64.52 47.944 64.312 47.944C63.512 47.88 62.872 47.848 62.392 47.848C62.2 48.104 62.032 48.376 61.888 48.664C61.76 48.952 61.592 49.384 61.384 49.96C61.096 50.792 60.848 51.384 60.64 51.736C60.496 51.976 60.216 52.096 59.8 52.096C59.448 52.096 59.12 52.024 58.816 51.88C58.528 51.72 58.384 51.504 58.384 51.232C58.512 50.624 58.712 49.984 58.984 49.312C59.272 48.624 59.68 47.712 60.208 46.576L61.168 44.224C61.696 42.88 62.176 41.728 62.608 40.768C63.056 39.808 63.64 38.672 64.36 37.36C64.456 37.168 64.616 37.008 64.84 36.88C65.064 36.736 65.312 36.664 65.584 36.664C65.888 36.664 66.104 36.688 66.232 36.736C66.376 36.768 66.488 36.832 66.568 36.928C66.648 37.008 66.768 37.184 66.928 37.456C67.472 38.304 67.936 39.176 68.32 40.072C68.72 40.968 69.224 42.208 69.832 43.792L70.336 45.064C70.784 46.216 71.168 47.184 71.488 47.968C71.824 48.736 72.192 49.44 72.592 50.08C72.848 50.496 72.976 50.784 72.976 50.944C72.976 51.328 72.856 51.624 72.616 51.832C72.392 52.024 72.096 52.12 71.728 52.12C71.264 52.12 70.912 51.96 70.672 51.64ZM68.2 45.832C67.944 45.288 67.576 44.344 67.096 43C66.6 41.56 66.104 40.416 65.608 39.568C65.304 40.336 64.856 41.328 64.264 42.544C63.864 43.296 63.408 44.384 62.896 45.808C63.92 45.936 65.024 46 66.208 46C67.056 46 67.72 45.944 68.2 45.832ZM85.9996 50.464C86.0156 50.8 85.9756 51.04 85.8796 51.184C85.7836 51.312 85.5916 51.448 85.3036 51.592C84.8716 51.8 84.3596 51.936 83.7676 52C83.1916 52.064 82.4476 52.096 81.5356 52.096H79.9036C78.4796 52.096 77.4236 51.856 76.7356 51.376C76.0476 50.88 75.6156 50.288 75.4396 49.6C75.2636 48.912 75.1596 48.024 75.1276 46.936C75.1116 46.568 75.1036 46.024 75.1036 45.304C75.1036 43.736 75.2396 41.64 75.5116 39.016C75.5916 38.248 75.8716 37.696 76.3516 37.36C76.8316 37.008 77.3756 36.832 77.9836 36.832C78.4796 36.832 79.2876 36.816 80.4076 36.784L82.5196 36.76C83.3836 36.76 84.0076 36.784 84.3916 36.832C84.8716 36.928 85.2316 37.04 85.4716 37.168C85.7116 37.28 85.8396 37.48 85.8556 37.768C85.8556 38.088 85.7516 38.4 85.5436 38.704C85.3356 39.008 85.0156 39.16 84.5836 39.16C84.0876 39.16 83.3756 39.128 82.4476 39.064C81.5196 39 80.8156 38.968 80.3356 38.968C79.9036 38.968 79.5116 38.992 79.1596 39.04C78.7116 39.072 78.3916 39.128 78.1996 39.208C78.0076 39.288 77.9036 39.424 77.8876 39.616C77.7116 41.36 77.6396 42.576 77.6716 43.264C78.0396 43.312 78.4076 43.336 78.7756 43.336C79.1436 43.336 79.6476 43.304 80.2876 43.24C80.4476 43.224 80.6476 43.208 80.8876 43.192C81.1276 43.176 81.3996 43.168 81.7036 43.168C81.8796 43.168 82.1596 43.184 82.5436 43.216L83.2876 43.24C84.0236 43.24 84.3916 43.504 84.3916 44.032C84.3916 44.352 84.3036 44.608 84.1276 44.8C83.9516 44.992 83.6396 45.136 83.1916 45.232C82.5836 45.344 81.5996 45.4 80.2396 45.4H78.7756C78.4716 45.4 78.0956 45.384 77.6476 45.352C77.6316 45.64 77.6236 46.056 77.6236 46.6C77.6236 47.304 77.6316 47.8 77.6476 48.088C77.6956 49.208 78.4716 49.768 79.9756 49.768C80.4876 49.768 81.0316 49.784 81.6076 49.816L82.4956 49.84C82.9116 49.84 83.2556 49.8 83.5276 49.72C83.7996 49.624 84.0636 49.544 84.3196 49.48C84.5916 49.4 84.8396 49.36 85.0636 49.36C85.3676 49.36 85.5996 49.48 85.7596 49.72C85.9196 49.944 85.9996 50.192 85.9996 50.464ZM99.2853 47.656C99.2853 48.408 99.1093 49.056 98.7573 49.6C98.4213 50.128 97.8613 50.616 97.0773 51.064C96.5493 51.384 95.9333 51.624 95.2293 51.784C94.5253 51.944 93.8133 52.024 93.0933 52.024C92.3573 52.024 91.4453 51.784 90.3573 51.304C89.5733 50.92 88.9493 50.464 88.4853 49.936C88.0373 49.408 87.8133 48.832 87.8133 48.208C87.8133 47.776 87.9093 47.464 88.1013 47.272C88.2933 47.064 88.6053 46.96 89.0373 46.96C89.2613 46.96 89.4933 47.056 89.7333 47.248C89.9733 47.424 90.1173 47.6 90.1653 47.776C90.3893 48.432 90.7813 48.936 91.3413 49.288C91.9013 49.624 92.5973 49.792 93.4293 49.792C94.3893 49.792 95.1893 49.616 95.8293 49.264C96.4853 48.912 96.8133 48.44 96.8133 47.848C96.8133 47.272 96.4613 46.76 95.7573 46.312C95.0533 45.864 94.3333 45.552 93.5973 45.376C92.5413 45.088 91.6053 44.744 90.7893 44.344C89.9413 43.928 89.3093 43.416 88.8933 42.808C88.4773 42.2 88.2693 41.56 88.2693 40.888C88.2693 40.264 88.4853 39.632 88.9173 38.992C89.3493 38.336 89.8613 37.864 90.4533 37.576C90.7733 37.416 91.3173 37.248 92.0853 37.072C92.8693 36.88 93.4373 36.784 93.7893 36.784C94.2533 36.784 94.7653 36.84 95.3253 36.952C95.8853 37.064 96.3413 37.224 96.6933 37.432C97.3973 37.832 97.9173 38.192 98.2533 38.512C98.5893 38.832 98.7573 39.232 98.7573 39.712C98.7573 40 98.6453 40.256 98.4213 40.48C98.2133 40.704 97.8453 40.816 97.3173 40.816C97.1893 40.816 97.0613 40.76 96.9333 40.648C96.8053 40.536 96.6453 40.368 96.4533 40.144C96.1973 39.808 95.9493 39.584 95.7093 39.472C95.4693 39.392 95.1173 39.304 94.6533 39.208C94.2053 39.112 93.8053 39.064 93.4533 39.064C93.0693 39.064 92.6693 39.144 92.2533 39.304C91.8373 39.464 91.4853 39.696 91.1973 40C90.9253 40.288 90.7893 40.624 90.7893 41.008C90.7893 41.328 90.9333 41.608 91.2213 41.848C91.5253 42.072 91.8853 42.256 92.3013 42.4C92.7813 42.592 93.3013 42.76 93.8613 42.904C94.5973 43.128 95.1973 43.336 95.6613 43.528C96.1413 43.704 96.6053 43.928 97.0533 44.2C97.8373 44.664 98.4053 45.144 98.7573 45.64C99.1093 46.12 99.2853 46.792 99.2853 47.656ZM100.522 38.008C100.522 37.32 101.026 36.976 102.034 36.976C102.466 36.976 103.29 36.992 104.506 37.024C105.85 37.088 106.866 37.12 107.554 37.12C108.114 37.12 108.794 37.088 109.594 37.024C110.138 36.992 110.482 36.976 110.626 36.976C111.506 37.008 112.25 37.168 112.858 37.456C113.034 37.536 113.178 37.632 113.29 37.744C113.402 37.856 113.458 38.04 113.458 38.296C113.458 38.648 113.346 38.952 113.122 39.208C112.898 39.448 112.626 39.568 112.306 39.568C111.954 39.568 111.442 39.52 110.77 39.424C110.178 39.312 109.658 39.256 109.21 39.256C108.778 39.256 108.45 39.264 108.226 39.28C108.178 39.808 108.154 41.072 108.154 43.072C108.154 45.456 108.226 47.872 108.37 50.32L108.418 51.016C108.418 51.672 108.042 52 107.29 52C106.698 52 106.298 51.864 106.09 51.592C105.882 51.304 105.778 50.872 105.778 50.296C105.778 49.16 105.746 47.744 105.682 46.048C105.618 44.64 105.586 43.64 105.586 43.048C105.586 42.648 105.634 41.424 105.73 39.376L102.922 39.4C102.026 39.4 101.402 39.32 101.05 39.16C100.698 38.984 100.522 38.6 100.522 38.008ZM126.023 43.408C126.007 43.152 125.999 42.768 125.999 42.256V41.344C125.999 40.736 125.983 40.28 125.951 39.976C125.919 39.72 125.903 39.056 125.903 37.984C125.903 37.6 126.015 37.304 126.239 37.096C126.479 36.872 126.799 36.76 127.199 36.76C127.711 36.76 128.055 36.872 128.231 37.096C128.407 37.32 128.495 37.688 128.495 38.2V39.112L128.471 41.752C128.455 42.264 128.447 43.032 128.447 44.056L128.471 46.024C128.487 46.328 128.495 46.752 128.495 47.296C128.495 47.728 128.511 48.344 128.543 49.144C128.575 49.88 128.591 50.432 128.591 50.8C128.591 51.104 128.503 51.384 128.327 51.64C128.167 51.896 127.943 52.024 127.655 52.024C126.535 52.024 125.975 51.648 125.975 50.896C125.975 50.48 125.991 50.016 126.023 49.504C126.055 49.136 126.071 48.576 126.071 47.824C126.071 47.296 126.055 46.536 126.023 45.544C125.271 45.608 123.975 45.64 122.135 45.64C120.983 45.64 120.087 45.64 119.447 45.64C118.807 45.624 118.343 45.584 118.055 45.52L118.031 48.28C118.031 48.456 118.071 48.928 118.151 49.696C118.231 50.208 118.271 50.656 118.271 51.04C118.271 51.28 118.127 51.512 117.839 51.736C117.567 51.944 117.311 52.048 117.071 52.048C116.495 52.048 116.103 51.912 115.895 51.64C115.687 51.352 115.583 50.92 115.583 50.344L115.559 48.448C115.543 48.224 115.535 47.912 115.535 47.512C115.535 46.92 115.519 46.112 115.487 45.088C115.455 44.16 115.439 43.488 115.439 43.072C115.439 42.448 115.455 41.576 115.487 40.456C115.519 39.4 115.535 38.616 115.535 38.104C115.535 37.592 115.663 37.248 115.919 37.072C116.175 36.896 116.463 36.808 116.783 36.808C117.679 36.808 118.127 37.104 118.127 37.696C118.127 38.752 118.103 39.76 118.055 40.72C118.023 41.936 118.007 42.824 118.007 43.384C118.471 43.496 118.959 43.568 119.471 43.6C119.983 43.632 120.703 43.648 121.631 43.648C123.519 43.648 124.983 43.568 126.023 43.408ZM141.968 48.952C142.272 48.952 142.496 49.072 142.64 49.312C142.8 49.536 142.88 49.784 142.88 50.056C142.88 50.392 142.824 50.632 142.712 50.776C142.616 50.904 142.416 51.04 142.112 51.184C141.472 51.488 140.752 51.704 139.952 51.832C139.168 51.96 138.184 52.024 137 52.024C135.576 52.024 134.48 51.784 133.712 51.304C132.96 50.808 132.464 50.192 132.224 49.456C131.984 48.72 131.864 47.864 131.864 46.888V45.376C131.864 44.336 131.888 43.336 131.936 42.376C132 41.416 132.12 40.296 132.296 39.016C132.408 38.248 132.712 37.696 133.208 37.36C133.704 37.008 134.248 36.832 134.84 36.832C135.48 36.832 136.36 36.816 137.48 36.784L139.568 36.76C140.416 36.76 141.04 36.784 141.44 36.832C141.92 36.928 142.272 37.04 142.496 37.168C142.736 37.28 142.856 37.48 142.856 37.768C142.856 38.088 142.744 38.4 142.52 38.704C142.312 39.008 141.992 39.16 141.56 39.16C141.064 39.16 140.352 39.128 139.424 39.064C138.496 39 137.8 38.968 137.336 38.968C136.76 38.968 136.296 38.992 135.944 39.04C135.496 39.072 135.176 39.128 134.984 39.208C134.792 39.288 134.68 39.424 134.648 39.616C134.424 41.264 134.312 42.48 134.312 43.264C134.664 43.312 135.04 43.336 135.44 43.336C135.952 43.336 136.808 43.28 138.008 43.168C138.888 43.088 139.616 43.048 140.192 43.048C140.56 43.048 140.832 43.112 141.008 43.24C141.184 43.368 141.272 43.544 141.272 43.768C141.272 44.12 141.184 44.392 141.008 44.584C140.832 44.776 140.512 44.92 140.048 45.016C139.488 45.128 138.76 45.216 137.864 45.28C136.984 45.344 136.144 45.376 135.344 45.376C135.04 45.376 134.664 45.36 134.216 45.328C134.216 46.384 134.264 47.216 134.36 47.824C134.472 48.432 134.696 48.904 135.032 49.24C135.384 49.576 135.912 49.744 136.616 49.744C138.2 49.744 139.464 49.6 140.408 49.312C141.08 49.072 141.6 48.952 141.968 48.952ZM143.881 38.008C143.881 37.32 144.385 36.976 145.393 36.976C145.825 36.976 146.649 36.992 147.865 37.024C149.209 37.088 150.225 37.12 150.913 37.12C151.473 37.12 152.153 37.088 152.953 37.024C153.497 36.992 153.841 36.976 153.985 36.976C154.865 37.008 155.609 37.168 156.217 37.456C156.393 37.536 156.537 37.632 156.649 37.744C156.761 37.856 156.817 38.04 156.817 38.296C156.817 38.648 156.705 38.952 156.481 39.208C156.257 39.448 155.985 39.568 155.665 39.568C155.313 39.568 154.801 39.52 154.129 39.424C153.537 39.312 153.017 39.256 152.569 39.256C152.137 39.256 151.809 39.264 151.585 39.28C151.537 39.808 151.513 41.072 151.513 43.072C151.513 45.456 151.585 47.872 151.729 50.32L151.777 51.016C151.777 51.672 151.401 52 150.649 52C150.057 52 149.657 51.864 149.449 51.592C149.241 51.304 149.137 50.872 149.137 50.296C149.137 49.16 149.105 47.744 149.041 46.048C148.977 44.64 148.945 43.64 148.945 43.048C148.945 42.648 148.993 41.424 149.089 39.376L146.281 39.4C145.385 39.4 144.761 39.32 144.409 39.16C144.057 38.984 143.881 38.6 143.881 38.008ZM162.662 38.752C162.614 39.776 162.59 40.76 162.59 41.704C162.59 42.68 162.654 44.112 162.782 46C162.798 46.288 162.83 46.872 162.878 47.752C162.926 48.616 162.95 49.408 162.95 50.128C163.11 50.112 163.278 50.088 163.454 50.056C163.646 50.024 163.79 50.008 163.886 50.008C164.238 50.008 164.518 50.096 164.726 50.272C164.934 50.448 165.038 50.72 165.038 51.088C165.038 51.328 164.942 51.512 164.75 51.64C164.558 51.768 164.222 51.864 163.742 51.928C163.278 51.976 162.598 52 161.702 52C160.71 52 159.966 51.968 159.47 51.904C158.974 51.84 158.63 51.72 158.438 51.544C158.246 51.352 158.15 51.072 158.15 50.704C158.15 50.432 158.238 50.248 158.414 50.152C158.59 50.056 158.838 50.008 159.158 50.008L159.662 50.032L160.454 50.08L160.334 47.248C160.238 45.712 160.19 44.304 160.19 43.024C160.19 42.336 160.214 41.392 160.262 40.192L160.31 38.872C159.766 38.904 159.342 38.92 159.038 38.92C158.686 38.92 158.446 38.856 158.318 38.728C158.206 38.6 158.15 38.336 158.15 37.936C158.15 37.488 158.454 37.2 159.062 37.072C159.686 36.944 160.63 36.88 161.894 36.88C162.87 36.88 163.598 36.912 164.078 36.976C164.574 37.04 164.822 37.184 164.822 37.408C164.822 37.952 164.702 38.312 164.462 38.488C164.238 38.648 163.798 38.728 163.142 38.728L162.662 38.752ZM179.463 39.112C179.703 39.4 179.871 39.632 179.967 39.808C180.063 39.984 180.111 40.152 180.111 40.312C180.111 40.504 179.983 40.728 179.727 40.984C179.487 41.24 179.247 41.368 179.007 41.368C178.687 41.368 178.431 41.32 178.239 41.224C178.047 41.128 177.887 40.976 177.759 40.768C177.455 40.288 177.103 39.864 176.703 39.496C176.303 39.112 175.767 38.92 175.095 38.92C174.439 38.92 173.703 39.072 172.887 39.376C172.071 39.68 171.471 40.056 171.087 40.504C170.223 41.56 169.791 42.96 169.791 44.704C169.791 46.096 170.223 47.288 171.087 48.28C171.999 49.304 173.151 49.816 174.543 49.816C175.183 49.816 175.879 49.704 176.631 49.48C177.399 49.24 178.007 48.856 178.455 48.328H178.431C178.719 48.024 179.079 47.872 179.511 47.872C179.767 47.872 180.007 47.984 180.231 48.208C180.471 48.432 180.591 48.656 180.591 48.88C180.591 49.12 180.551 49.336 180.471 49.528C180.407 49.704 180.279 49.904 180.087 50.128C179.431 50.848 178.591 51.352 177.567 51.64C176.559 51.912 175.407 52.048 174.111 52.048C173.039 52.048 172.007 51.792 171.015 51.28C170.039 50.768 169.231 50.12 168.591 49.336C168.271 48.872 167.959 48.208 167.655 47.344C167.367 46.464 167.223 45.752 167.223 45.208C167.223 43.816 167.431 42.496 167.847 41.248C168.279 39.984 168.919 38.976 169.767 38.224C170.327 37.712 171.135 37.328 172.191 37.072C173.247 36.816 174.215 36.688 175.095 36.688C175.799 36.688 176.399 36.792 176.895 37C177.407 37.192 177.847 37.456 178.215 37.792C178.583 38.112 178.999 38.552 179.463 39.112ZM193.949 47.656C193.949 48.408 193.773 49.056 193.421 49.6C193.085 50.128 192.525 50.616 191.741 51.064C191.213 51.384 190.597 51.624 189.893 51.784C189.189 51.944 188.477 52.024 187.757 52.024C187.021 52.024 186.109 51.784 185.021 51.304C184.237 50.92 183.613 50.464 183.149 49.936C182.701 49.408 182.477 48.832 182.477 48.208C182.477 47.776 182.573 47.464 182.765 47.272C182.957 47.064 183.269 46.96 183.701 46.96C183.925 46.96 184.157 47.056 184.397 47.248C184.637 47.424 184.781 47.6 184.829 47.776C185.053 48.432 185.445 48.936 186.005 49.288C186.565 49.624 187.261 49.792 188.093 49.792C189.053 49.792 189.853 49.616 190.493 49.264C191.149 48.912 191.477 48.44 191.477 47.848C191.477 47.272 191.125 46.76 190.421 46.312C189.717 45.864 188.997 45.552 188.261 45.376C187.205 45.088 186.269 44.744 185.453 44.344C184.605 43.928 183.973 43.416 183.557 42.808C183.141 42.2 182.933 41.56 182.933 40.888C182.933 40.264 183.149 39.632 183.581 38.992C184.013 38.336 184.525 37.864 185.117 37.576C185.437 37.416 185.981 37.248 186.749 37.072C187.533 36.88 188.101 36.784 188.453 36.784C188.901 36.784 189.373 36.84 189.869 36.952C190.365 37.064 190.789 37.224 191.141 37.432C191.845 37.832 192.365 38.192 192.701 38.512C193.037 38.832 193.205 39.232 193.205 39.712C193.205 40 193.093 40.256 192.869 40.48C192.661 40.704 192.293 40.816 191.765 40.816C191.637 40.816 191.509 40.76 191.381 40.648C191.253 40.536 191.093 40.368 190.901 40.144C190.645 39.808 190.397 39.584 190.157 39.472C189.901 39.376 189.581 39.288 189.197 39.208C188.813 39.112 188.453 39.064 188.117 39.064C187.733 39.064 187.333 39.144 186.917 39.304C186.501 39.464 186.149 39.696 185.861 40C185.589 40.288 185.453 40.624 185.453 41.008C185.453 41.328 185.597 41.608 185.885 41.848C186.189 42.072 186.549 42.256 186.965 42.4C187.445 42.592 187.965 42.76 188.525 42.904C189.261 43.128 189.861 43.336 190.325 43.528C190.805 43.704 191.269 43.928 191.717 44.2C192.501 44.664 193.069 45.144 193.421 45.64C193.773 46.12 193.949 46.792 193.949 47.656Z" fill="black"/>
</svg>
