<svg width="225" height="57" viewBox="0 0 225 57" fill="none" xmlns="http://www.w3.org/2000/svg">
<path d="M73.504 18.656C73.504 19.408 73.328 20.056 72.976 20.6C72.64 21.128 72.08 21.616 71.296 22.064C70.768 22.384 70.152 22.624 69.448 22.784C68.744 22.944 68.032 23.024 67.312 23.024C66.576 23.024 65.664 22.784 64.576 22.304C63.792 21.92 63.168 21.464 62.704 20.936C62.256 20.408 62.032 19.832 62.032 19.208C62.032 18.776 62.128 18.464 62.32 18.272C62.512 18.064 62.824 17.96 63.256 17.96C63.48 17.96 63.712 18.056 63.952 18.248C64.192 18.424 64.336 18.6 64.384 18.776C64.608 19.432 65 19.936 65.56 20.288C66.12 20.624 66.816 20.792 67.648 20.792C68.608 20.792 69.408 20.616 70.048 20.264C70.704 19.912 71.032 19.44 71.032 18.848C71.032 18.272 70.68 17.76 69.976 17.312C69.272 16.864 68.552 16.552 67.816 16.376C66.76 16.088 65.824 15.744 65.008 15.344C64.16 14.928 63.528 14.416 63.112 13.808C62.696 13.2 62.488 12.56 62.488 11.888C62.488 11.264 62.704 10.632 63.136 9.992C63.568 9.336 64.08 8.864 64.672 8.576C64.992 8.416 65.536 8.248 66.304 8.072C67.088 7.88 67.656 7.784 68.008 7.784C68.472 7.784 68.984 7.84 69.544 7.952C70.104 8.064 70.56 8.224 70.912 8.432C71.616 8.832 72.136 9.192 72.472 9.512C72.808 9.832 72.976 10.232 72.976 10.712C72.976 11 72.864 11.256 72.64 11.48C72.432 11.704 72.064 11.816 71.536 11.816C71.408 11.816 71.28 11.76 71.152 11.648C71.024 11.536 70.864 11.368 70.672 11.144C70.416 10.808 70.168 10.584 69.928 10.472C69.688 10.392 69.336 10.304 68.872 10.208C68.424 10.112 68.024 10.064 67.672 10.064C67.288 10.064 66.888 10.144 66.472 10.304C66.056 10.464 65.704 10.696 65.416 11C65.144 11.288 65.008 11.624 65.008 12.008C65.008 12.328 65.152 12.608 65.44 12.848C65.744 13.072 66.104 13.256 66.52 13.4C67 13.592 67.52 13.76 68.08 13.904C68.816 14.128 69.416 14.336 69.88 14.528C70.36 14.704 70.824 14.928 71.272 15.2C72.056 15.664 72.624 16.144 72.976 16.64C73.328 17.12 73.504 17.792 73.504 18.656ZM91.8526 9.128C91.9486 8.792 92.0926 8.52 92.2846 8.312C92.4766 8.088 92.6846 7.976 92.9086 7.976C93.4526 7.976 93.8446 8.08 94.0846 8.288C94.3246 8.496 94.4446 8.856 94.4446 9.368C94.4446 9.512 94.3326 9.92 94.1086 10.592C93.6126 12.112 93.0686 13.992 92.4766 16.232C92.3326 16.744 92.2126 17.192 92.1166 17.576C92.0366 17.96 91.9646 18.28 91.9006 18.536C91.5166 20.184 91.1806 21.424 90.8926 22.256C90.7966 22.496 90.6286 22.688 90.3886 22.832C90.1486 22.96 89.8926 23.024 89.6206 23.024C89.3486 23.024 89.0766 22.968 88.8046 22.856C88.5486 22.728 88.3646 22.584 88.2526 22.424C87.7726 21.48 87.1646 20 86.4286 17.984C85.6926 15.952 85.1246 14.032 84.7246 12.224C84.3566 13.952 83.9566 15.504 83.5246 16.88C83.1086 18.256 82.6286 19.704 82.0846 21.224C82.0206 21.416 81.9566 21.6 81.8926 21.776C81.8286 21.936 81.7726 22.096 81.7246 22.256C81.6126 22.496 81.4526 22.688 81.2446 22.832C81.0366 22.96 80.8046 23.024 80.5486 23.024C80.2606 23.024 79.9806 22.968 79.7086 22.856C79.4366 22.728 79.2526 22.584 79.1566 22.424C78.9486 22.072 78.7246 21.528 78.4846 20.792C78.2606 20.056 77.9566 19.024 77.5726 17.696L76.9726 15.656C76.5566 14.328 76.1966 12.968 75.8926 11.576C75.5886 10.184 75.4366 9.352 75.4366 9.08C75.4366 8.744 75.6046 8.48 75.9406 8.288C76.2766 8.08 76.6126 7.976 76.9486 7.976C77.1406 7.976 77.3406 8.04 77.5486 8.168C77.7566 8.28 77.8926 8.48 77.9566 8.768C78.5166 11.76 79.3406 15.232 80.4286 19.184C80.7006 18.56 80.9566 17.824 81.1966 16.976C81.4526 16.112 81.7966 14.904 82.2286 13.352C82.7886 11.32 83.2126 9.872 83.5006 9.008C83.5646 8.768 83.7246 8.576 83.9806 8.432C84.2526 8.288 84.5246 8.216 84.7966 8.216C85.1486 8.216 85.4366 8.312 85.6606 8.504C85.8846 8.68 86.0286 8.872 86.0926 9.08L86.2846 9.824C86.7806 11.696 87.2766 13.448 87.7726 15.08C88.2686 16.712 88.7726 18.08 89.2846 19.184C89.6046 18.24 89.9886 16.728 90.4366 14.648L90.7966 13.064C91.2286 11.368 91.5806 10.056 91.8526 9.128ZM106.576 19.736C106.88 19.736 107.104 19.856 107.248 20.096C107.408 20.32 107.488 20.568 107.488 20.84C107.488 21.176 107.432 21.416 107.32 21.56C107.224 21.688 107.032 21.824 106.744 21.968C106.072 22.288 105.24 22.544 104.248 22.736C103.256 22.928 102.192 23.024 101.056 23.024C99.6318 23.024 98.5838 22.784 97.9118 22.304C97.2558 21.824 96.8478 21.248 96.6878 20.576C96.5438 19.888 96.4718 18.992 96.4718 17.888C96.4718 16.704 96.5198 15.544 96.6158 14.408C96.7118 13.256 96.8798 11.792 97.1198 10.016C97.2318 9.248 97.5358 8.696 98.0318 8.36C98.5278 8.008 99.0718 7.832 99.6638 7.832C100.16 7.832 100.968 7.816 102.088 7.784L104.176 7.76C105.04 7.76 105.664 7.784 106.048 7.832C106.528 7.928 106.88 8.04 107.104 8.168C107.344 8.28 107.464 8.48 107.464 8.768C107.464 9.088 107.352 9.4 107.128 9.704C106.92 10.008 106.6 10.16 106.168 10.16C105.672 10.16 104.96 10.128 104.032 10.064C103.104 10 102.408 9.968 101.944 9.968C101.544 9.968 101.152 9.992 100.768 10.04C100.32 10.072 99.9998 10.128 99.8078 10.208C99.6158 10.288 99.5038 10.424 99.4718 10.616C99.2478 12.264 99.1358 13.48 99.1358 14.264C99.5038 14.312 99.8638 14.336 100.216 14.336C100.664 14.336 101.144 14.312 101.656 14.264C102.168 14.216 102.496 14.184 102.64 14.168C103.488 14.088 104.216 14.048 104.824 14.048C105.176 14.048 105.44 14.112 105.616 14.24C105.808 14.368 105.904 14.544 105.904 14.768C105.904 15.12 105.808 15.392 105.616 15.584C105.44 15.776 105.12 15.92 104.656 16.016C104.096 16.128 103.4 16.216 102.568 16.28C101.752 16.344 100.952 16.376 100.168 16.376C99.8958 16.376 99.5198 16.36 99.0398 16.328C98.9918 17.304 98.9678 18.208 98.9678 19.04C98.9678 20.176 99.7198 20.744 101.224 20.744C102.024 20.744 102.688 20.688 103.216 20.576C103.744 20.464 104.352 20.304 105.04 20.096C105.68 19.856 106.192 19.736 106.576 19.736ZM120.898 21.464C120.914 21.8 120.874 22.04 120.778 22.184C120.682 22.312 120.49 22.448 120.202 22.592C119.77 22.8 119.258 22.936 118.666 23C118.09 23.064 117.346 23.096 116.434 23.096H114.802C113.378 23.096 112.322 22.856 111.634 22.376C110.946 21.88 110.514 21.288 110.338 20.6C110.162 19.912 110.058 19.024 110.026 17.936C110.01 17.568 110.002 17.024 110.002 16.304C110.002 14.736 110.138 12.64 110.41 10.016C110.49 9.248 110.77 8.696 111.25 8.36C111.73 8.008 112.274 7.832 112.882 7.832C113.378 7.832 114.186 7.816 115.306 7.784L117.418 7.76C118.282 7.76 118.906 7.784 119.29 7.832C119.77 7.928 120.13 8.04 120.37 8.168C120.61 8.28 120.738 8.48 120.754 8.768C120.754 9.088 120.65 9.4 120.442 9.704C120.234 10.008 119.914 10.16 119.482 10.16C118.986 10.16 118.274 10.128 117.346 10.064C116.418 10 115.714 9.968 115.234 9.968C114.802 9.968 114.41 9.992 114.058 10.04C113.61 10.072 113.29 10.128 113.098 10.208C112.906 10.288 112.802 10.424 112.786 10.616C112.61 12.36 112.538 13.576 112.57 14.264C112.938 14.312 113.306 14.336 113.674 14.336C114.042 14.336 114.546 14.304 115.186 14.24C115.346 14.224 115.546 14.208 115.786 14.192C116.026 14.176 116.298 14.168 116.602 14.168C116.778 14.168 117.058 14.184 117.442 14.216L118.186 14.24C118.922 14.24 119.29 14.504 119.29 15.032C119.29 15.352 119.202 15.608 119.026 15.8C118.85 15.992 118.538 16.136 118.09 16.232C117.482 16.344 116.498 16.4 115.138 16.4H113.674C113.37 16.4 112.994 16.384 112.546 16.352C112.53 16.64 112.522 17.056 112.522 17.6C112.522 18.304 112.53 18.8 112.546 19.088C112.594 20.208 113.37 20.768 114.874 20.768C115.386 20.768 115.93 20.784 116.506 20.816L117.394 20.84C117.81 20.84 118.154 20.8 118.426 20.72C118.698 20.624 118.962 20.544 119.218 20.48C119.49 20.4 119.738 20.36 119.962 20.36C120.266 20.36 120.498 20.48 120.658 20.72C120.818 20.944 120.898 21.192 120.898 21.464ZM121.944 9.008C121.944 8.32 122.448 7.976 123.456 7.976C123.888 7.976 124.712 7.992 125.928 8.024C127.272 8.088 128.288 8.12 128.976 8.12C129.536 8.12 130.216 8.088 131.016 8.024C131.56 7.992 131.904 7.976 132.048 7.976C132.928 8.008 133.672 8.168 134.28 8.456C134.456 8.536 134.6 8.632 134.712 8.744C134.824 8.856 134.88 9.04 134.88 9.296C134.88 9.648 134.768 9.952 134.544 10.208C134.32 10.448 134.048 10.568 133.728 10.568C133.376 10.568 132.864 10.52 132.192 10.424C131.6 10.312 131.08 10.256 130.632 10.256C130.2 10.256 129.872 10.264 129.648 10.28C129.6 10.808 129.576 12.072 129.576 14.072C129.576 16.456 129.648 18.872 129.792 21.32L129.84 22.016C129.84 22.672 129.464 23 128.712 23C128.12 23 127.72 22.864 127.512 22.592C127.304 22.304 127.2 21.872 127.2 21.296C127.2 20.16 127.168 18.744 127.104 17.048C127.04 15.64 127.008 14.64 127.008 14.048C127.008 13.648 127.056 12.424 127.152 10.376L124.344 10.4C123.448 10.4 122.824 10.32 122.472 10.16C122.12 9.984 121.944 9.6 121.944 9.008ZM73.672 51.64C73.464 51.368 73.288 51.072 73.144 50.752C73 50.416 72.848 50.016 72.688 49.552C72.656 49.472 72.56 49.232 72.4 48.832C72.256 48.432 72.088 48.088 71.896 47.8C70.888 47.944 70.064 48.016 69.424 48.016C69.072 48.016 68.68 48.008 68.248 47.992C67.832 47.96 67.52 47.944 67.312 47.944C66.512 47.88 65.872 47.848 65.392 47.848C65.2 48.104 65.032 48.376 64.888 48.664C64.76 48.952 64.592 49.384 64.384 49.96C64.096 50.792 63.848 51.384 63.64 51.736C63.496 51.976 63.216 52.096 62.8 52.096C62.448 52.096 62.12 52.024 61.816 51.88C61.528 51.72 61.384 51.504 61.384 51.232C61.512 50.624 61.712 49.984 61.984 49.312C62.272 48.624 62.68 47.712 63.208 46.576L64.168 44.224C64.696 42.88 65.176 41.728 65.608 40.768C66.056 39.808 66.64 38.672 67.36 37.36C67.456 37.168 67.616 37.008 67.84 36.88C68.064 36.736 68.312 36.664 68.584 36.664C68.888 36.664 69.104 36.688 69.232 36.736C69.376 36.768 69.488 36.832 69.568 36.928C69.648 37.008 69.768 37.184 69.928 37.456C70.472 38.304 70.936 39.176 71.32 40.072C71.72 40.968 72.224 42.208 72.832 43.792L73.336 45.064C73.784 46.216 74.168 47.184 74.488 47.968C74.824 48.736 75.192 49.44 75.592 50.08C75.848 50.496 75.976 50.784 75.976 50.944C75.976 51.328 75.856 51.624 75.616 51.832C75.392 52.024 75.096 52.12 74.728 52.12C74.264 52.12 73.912 51.96 73.672 51.64ZM71.2 45.832C70.944 45.288 70.576 44.344 70.096 43C69.6 41.56 69.104 40.416 68.608 39.568C68.304 40.336 67.856 41.328 67.264 42.544C66.864 43.296 66.408 44.384 65.896 45.808C66.92 45.936 68.024 46 69.208 46C70.056 46 70.72 45.944 71.2 45.832ZM88.9996 50.464C89.0156 50.8 88.9756 51.04 88.8796 51.184C88.7836 51.312 88.5916 51.448 88.3036 51.592C87.8716 51.8 87.3596 51.936 86.7676 52C86.1916 52.064 85.4476 52.096 84.5356 52.096H82.9036C81.4796 52.096 80.4236 51.856 79.7356 51.376C79.0476 50.88 78.6156 50.288 78.4396 49.6C78.2636 48.912 78.1596 48.024 78.1276 46.936C78.1116 46.568 78.1036 46.024 78.1036 45.304C78.1036 43.736 78.2396 41.64 78.5116 39.016C78.5916 38.248 78.8716 37.696 79.3516 37.36C79.8316 37.008 80.3756 36.832 80.9836 36.832C81.4796 36.832 82.2876 36.816 83.4076 36.784L85.5196 36.76C86.3836 36.76 87.0076 36.784 87.3916 36.832C87.8716 36.928 88.2316 37.04 88.4716 37.168C88.7116 37.28 88.8396 37.48 88.8556 37.768C88.8556 38.088 88.7516 38.4 88.5436 38.704C88.3356 39.008 88.0156 39.16 87.5836 39.16C87.0876 39.16 86.3756 39.128 85.4476 39.064C84.5196 39 83.8156 38.968 83.3356 38.968C82.9036 38.968 82.5116 38.992 82.1596 39.04C81.7116 39.072 81.3916 39.128 81.1996 39.208C81.0076 39.288 80.9036 39.424 80.8876 39.616C80.7116 41.36 80.6396 42.576 80.6716 43.264C81.0396 43.312 81.4076 43.336 81.7756 43.336C82.1436 43.336 82.6476 43.304 83.2876 43.24C83.4476 43.224 83.6476 43.208 83.8876 43.192C84.1276 43.176 84.3996 43.168 84.7036 43.168C84.8796 43.168 85.1596 43.184 85.5436 43.216L86.2876 43.24C87.0236 43.24 87.3916 43.504 87.3916 44.032C87.3916 44.352 87.3036 44.608 87.1276 44.8C86.9516 44.992 86.6396 45.136 86.1916 45.232C85.5836 45.344 84.5996 45.4 83.2396 45.4H81.7756C81.4716 45.4 81.0956 45.384 80.6476 45.352C80.6316 45.64 80.6236 46.056 80.6236 46.6C80.6236 47.304 80.6316 47.8 80.6476 48.088C80.6956 49.208 81.4716 49.768 82.9756 49.768C83.4876 49.768 84.0316 49.784 84.6076 49.816L85.4956 49.84C85.9116 49.84 86.2556 49.8 86.5276 49.72C86.7996 49.624 87.0636 49.544 87.3196 49.48C87.5916 49.4 87.8396 49.36 88.0636 49.36C88.3676 49.36 88.5996 49.48 88.7596 49.72C88.9196 49.944 88.9996 50.192 88.9996 50.464ZM102.285 47.656C102.285 48.408 102.109 49.056 101.757 49.6C101.421 50.128 100.861 50.616 100.077 51.064C99.5493 51.384 98.9333 51.624 98.2293 51.784C97.5253 51.944 96.8133 52.024 96.0933 52.024C95.3573 52.024 94.4453 51.784 93.3573 51.304C92.5733 50.92 91.9493 50.464 91.4853 49.936C91.0373 49.408 90.8133 48.832 90.8133 48.208C90.8133 47.776 90.9093 47.464 91.1013 47.272C91.2933 47.064 91.6053 46.96 92.0373 46.96C92.2613 46.96 92.4933 47.056 92.7333 47.248C92.9733 47.424 93.1173 47.6 93.1653 47.776C93.3893 48.432 93.7813 48.936 94.3413 49.288C94.9013 49.624 95.5973 49.792 96.4293 49.792C97.3893 49.792 98.1893 49.616 98.8293 49.264C99.4853 48.912 99.8133 48.44 99.8133 47.848C99.8133 47.272 99.4613 46.76 98.7573 46.312C98.0533 45.864 97.3333 45.552 96.5973 45.376C95.5413 45.088 94.6053 44.744 93.7893 44.344C92.9413 43.928 92.3093 43.416 91.8933 42.808C91.4773 42.2 91.2693 41.56 91.2693 40.888C91.2693 40.264 91.4853 39.632 91.9173 38.992C92.3493 38.336 92.8613 37.864 93.4533 37.576C93.7733 37.416 94.3173 37.248 95.0853 37.072C95.8693 36.88 96.4373 36.784 96.7893 36.784C97.2533 36.784 97.7653 36.84 98.3253 36.952C98.8853 37.064 99.3413 37.224 99.6933 37.432C100.397 37.832 100.917 38.192 101.253 38.512C101.589 38.832 101.757 39.232 101.757 39.712C101.757 40 101.645 40.256 101.421 40.48C101.213 40.704 100.845 40.816 100.317 40.816C100.189 40.816 100.061 40.76 99.9333 40.648C99.8053 40.536 99.6453 40.368 99.4533 40.144C99.1973 39.808 98.9493 39.584 98.7093 39.472C98.4693 39.392 98.1173 39.304 97.6533 39.208C97.2053 39.112 96.8053 39.064 96.4533 39.064C96.0693 39.064 95.6693 39.144 95.2533 39.304C94.8373 39.464 94.4853 39.696 94.1973 40C93.9253 40.288 93.7893 40.624 93.7893 41.008C93.7893 41.328 93.9333 41.608 94.2213 41.848C94.5253 42.072 94.8853 42.256 95.3013 42.4C95.7813 42.592 96.3013 42.76 96.8613 42.904C97.5973 43.128 98.1973 43.336 98.6613 43.528C99.1413 43.704 99.6053 43.928 100.053 44.2C100.837 44.664 101.405 45.144 101.757 45.64C102.109 46.12 102.285 46.792 102.285 47.656ZM103.522 38.008C103.522 37.32 104.026 36.976 105.034 36.976C105.466 36.976 106.29 36.992 107.506 37.024C108.85 37.088 109.866 37.12 110.554 37.12C111.114 37.12 111.794 37.088 112.594 37.024C113.138 36.992 113.482 36.976 113.626 36.976C114.506 37.008 115.25 37.168 115.858 37.456C116.034 37.536 116.178 37.632 116.29 37.744C116.402 37.856 116.458 38.04 116.458 38.296C116.458 38.648 116.346 38.952 116.122 39.208C115.898 39.448 115.626 39.568 115.306 39.568C114.954 39.568 114.442 39.52 113.77 39.424C113.178 39.312 112.658 39.256 112.21 39.256C111.778 39.256 111.45 39.264 111.226 39.28C111.178 39.808 111.154 41.072 111.154 43.072C111.154 45.456 111.226 47.872 111.37 50.32L111.418 51.016C111.418 51.672 111.042 52 110.29 52C109.698 52 109.298 51.864 109.09 51.592C108.882 51.304 108.778 50.872 108.778 50.296C108.778 49.16 108.746 47.744 108.682 46.048C108.618 44.64 108.586 43.64 108.586 43.048C108.586 42.648 108.634 41.424 108.73 39.376L105.922 39.4C105.026 39.4 104.402 39.32 104.05 39.16C103.698 38.984 103.522 38.6 103.522 38.008ZM129.023 43.408C129.007 43.152 128.999 42.768 128.999 42.256V41.344C128.999 40.736 128.983 40.28 128.951 39.976C128.919 39.72 128.903 39.056 128.903 37.984C128.903 37.6 129.015 37.304 129.239 37.096C129.479 36.872 129.799 36.76 130.199 36.76C130.711 36.76 131.055 36.872 131.231 37.096C131.407 37.32 131.495 37.688 131.495 38.2V39.112L131.471 41.752C131.455 42.264 131.447 43.032 131.447 44.056L131.471 46.024C131.487 46.328 131.495 46.752 131.495 47.296C131.495 47.728 131.511 48.344 131.543 49.144C131.575 49.88 131.591 50.432 131.591 50.8C131.591 51.104 131.503 51.384 131.327 51.64C131.167 51.896 130.943 52.024 130.655 52.024C129.535 52.024 128.975 51.648 128.975 50.896C128.975 50.48 128.991 50.016 129.023 49.504C129.055 49.136 129.071 48.576 129.071 47.824C129.071 47.296 129.055 46.536 129.023 45.544C128.271 45.608 126.975 45.64 125.135 45.64C123.983 45.64 123.087 45.64 122.447 45.64C121.807 45.624 121.343 45.584 121.055 45.52L121.031 48.28C121.031 48.456 121.071 48.928 121.151 49.696C121.231 50.208 121.271 50.656 121.271 51.04C121.271 51.28 121.127 51.512 120.839 51.736C120.567 51.944 120.311 52.048 120.071 52.048C119.495 52.048 119.103 51.912 118.895 51.64C118.687 51.352 118.583 50.92 118.583 50.344L118.559 48.448C118.543 48.224 118.535 47.912 118.535 47.512C118.535 46.92 118.519 46.112 118.487 45.088C118.455 44.16 118.439 43.488 118.439 43.072C118.439 42.448 118.455 41.576 118.487 40.456C118.519 39.4 118.535 38.616 118.535 38.104C118.535 37.592 118.663 37.248 118.919 37.072C119.175 36.896 119.463 36.808 119.783 36.808C120.679 36.808 121.127 37.104 121.127 37.696C121.127 38.752 121.103 39.76 121.055 40.72C121.023 41.936 121.007 42.824 121.007 43.384C121.471 43.496 121.959 43.568 122.471 43.6C122.983 43.632 123.703 43.648 124.631 43.648C126.519 43.648 127.983 43.568 129.023 43.408ZM144.968 48.952C145.272 48.952 145.496 49.072 145.64 49.312C145.8 49.536 145.88 49.784 145.88 50.056C145.88 50.392 145.824 50.632 145.712 50.776C145.616 50.904 145.416 51.04 145.112 51.184C144.472 51.488 143.752 51.704 142.952 51.832C142.168 51.96 141.184 52.024 140 52.024C138.576 52.024 137.48 51.784 136.712 51.304C135.96 50.808 135.464 50.192 135.224 49.456C134.984 48.72 134.864 47.864 134.864 46.888V45.376C134.864 44.336 134.888 43.336 134.936 42.376C135 41.416 135.12 40.296 135.296 39.016C135.408 38.248 135.712 37.696 136.208 37.36C136.704 37.008 137.248 36.832 137.84 36.832C138.48 36.832 139.36 36.816 140.48 36.784L142.568 36.76C143.416 36.76 144.04 36.784 144.44 36.832C144.92 36.928 145.272 37.04 145.496 37.168C145.736 37.28 145.856 37.48 145.856 37.768C145.856 38.088 145.744 38.4 145.52 38.704C145.312 39.008 144.992 39.16 144.56 39.16C144.064 39.16 143.352 39.128 142.424 39.064C141.496 39 140.8 38.968 140.336 38.968C139.76 38.968 139.296 38.992 138.944 39.04C138.496 39.072 138.176 39.128 137.984 39.208C137.792 39.288 137.68 39.424 137.648 39.616C137.424 41.264 137.312 42.48 137.312 43.264C137.664 43.312 138.04 43.336 138.44 43.336C138.952 43.336 139.808 43.28 141.008 43.168C141.888 43.088 142.616 43.048 143.192 43.048C143.56 43.048 143.832 43.112 144.008 43.24C144.184 43.368 144.272 43.544 144.272 43.768C144.272 44.12 144.184 44.392 144.008 44.584C143.832 44.776 143.512 44.92 143.048 45.016C142.488 45.128 141.76 45.216 140.864 45.28C139.984 45.344 139.144 45.376 138.344 45.376C138.04 45.376 137.664 45.36 137.216 45.328C137.216 46.384 137.264 47.216 137.36 47.824C137.472 48.432 137.696 48.904 138.032 49.24C138.384 49.576 138.912 49.744 139.616 49.744C141.2 49.744 142.464 49.6 143.408 49.312C144.08 49.072 144.6 48.952 144.968 48.952ZM146.881 38.008C146.881 37.32 147.385 36.976 148.393 36.976C148.825 36.976 149.649 36.992 150.865 37.024C152.209 37.088 153.225 37.12 153.913 37.12C154.473 37.12 155.153 37.088 155.953 37.024C156.497 36.992 156.841 36.976 156.985 36.976C157.865 37.008 158.609 37.168 159.217 37.456C159.393 37.536 159.537 37.632 159.649 37.744C159.761 37.856 159.817 38.04 159.817 38.296C159.817 38.648 159.705 38.952 159.481 39.208C159.257 39.448 158.985 39.568 158.665 39.568C158.313 39.568 157.801 39.52 157.129 39.424C156.537 39.312 156.017 39.256 155.569 39.256C155.137 39.256 154.809 39.264 154.585 39.28C154.537 39.808 154.513 41.072 154.513 43.072C154.513 45.456 154.585 47.872 154.729 50.32L154.777 51.016C154.777 51.672 154.401 52 153.649 52C153.057 52 152.657 51.864 152.449 51.592C152.241 51.304 152.137 50.872 152.137 50.296C152.137 49.16 152.105 47.744 152.041 46.048C151.977 44.64 151.945 43.64 151.945 43.048C151.945 42.648 151.993 41.424 152.089 39.376L149.281 39.4C148.385 39.4 147.761 39.32 147.409 39.16C147.057 38.984 146.881 38.6 146.881 38.008ZM165.662 38.752C165.614 39.776 165.59 40.76 165.59 41.704C165.59 42.68 165.654 44.112 165.782 46C165.798 46.288 165.83 46.872 165.878 47.752C165.926 48.616 165.95 49.408 165.95 50.128C166.11 50.112 166.278 50.088 166.454 50.056C166.646 50.024 166.79 50.008 166.886 50.008C167.238 50.008 167.518 50.096 167.726 50.272C167.934 50.448 168.038 50.72 168.038 51.088C168.038 51.328 167.942 51.512 167.75 51.64C167.558 51.768 167.222 51.864 166.742 51.928C166.278 51.976 165.598 52 164.702 52C163.71 52 162.966 51.968 162.47 51.904C161.974 51.84 161.63 51.72 161.438 51.544C161.246 51.352 161.15 51.072 161.15 50.704C161.15 50.432 161.238 50.248 161.414 50.152C161.59 50.056 161.838 50.008 162.158 50.008L162.662 50.032L163.454 50.08L163.334 47.248C163.238 45.712 163.19 44.304 163.19 43.024C163.19 42.336 163.214 41.392 163.262 40.192L163.31 38.872C162.766 38.904 162.342 38.92 162.038 38.92C161.686 38.92 161.446 38.856 161.318 38.728C161.206 38.6 161.15 38.336 161.15 37.936C161.15 37.488 161.454 37.2 162.062 37.072C162.686 36.944 163.63 36.88 164.894 36.88C165.87 36.88 166.598 36.912 167.078 36.976C167.574 37.04 167.822 37.184 167.822 37.408C167.822 37.952 167.702 38.312 167.462 38.488C167.238 38.648 166.798 38.728 166.142 38.728L165.662 38.752ZM182.463 39.112C182.703 39.4 182.871 39.632 182.967 39.808C183.063 39.984 183.111 40.152 183.111 40.312C183.111 40.504 182.983 40.728 182.727 40.984C182.487 41.24 182.247 41.368 182.007 41.368C181.687 41.368 181.431 41.32 181.239 41.224C181.047 41.128 180.887 40.976 180.759 40.768C180.455 40.288 180.103 39.864 179.703 39.496C179.303 39.112 178.767 38.92 178.095 38.92C177.439 38.92 176.703 39.072 175.887 39.376C175.071 39.68 174.471 40.056 174.087 40.504C173.223 41.56 172.791 42.96 172.791 44.704C172.791 46.096 173.223 47.288 174.087 48.28C174.999 49.304 176.151 49.816 177.543 49.816C178.183 49.816 178.879 49.704 179.631 49.48C180.399 49.24 181.007 48.856 181.455 48.328H181.431C181.719 48.024 182.079 47.872 182.511 47.872C182.767 47.872 183.007 47.984 183.231 48.208C183.471 48.432 183.591 48.656 183.591 48.88C183.591 49.12 183.551 49.336 183.471 49.528C183.407 49.704 183.279 49.904 183.087 50.128C182.431 50.848 181.591 51.352 180.567 51.64C179.559 51.912 178.407 52.048 177.111 52.048C176.039 52.048 175.007 51.792 174.015 51.28C173.039 50.768 172.231 50.12 171.591 49.336C171.271 48.872 170.959 48.208 170.655 47.344C170.367 46.464 170.223 45.752 170.223 45.208C170.223 43.816 170.431 42.496 170.847 41.248C171.279 39.984 171.919 38.976 172.767 38.224C173.327 37.712 174.135 37.328 175.191 37.072C176.247 36.816 177.215 36.688 178.095 36.688C178.799 36.688 179.399 36.792 179.895 37C180.407 37.192 180.847 37.456 181.215 37.792C181.583 38.112 181.999 38.552 182.463 39.112ZM196.949 47.656C196.949 48.408 196.773 49.056 196.421 49.6C196.085 50.128 195.525 50.616 194.741 51.064C194.213 51.384 193.597 51.624 192.893 51.784C192.189 51.944 191.477 52.024 190.757 52.024C190.021 52.024 189.109 51.784 188.021 51.304C187.237 50.92 186.613 50.464 186.149 49.936C185.701 49.408 185.477 48.832 185.477 48.208C185.477 47.776 185.573 47.464 185.765 47.272C185.957 47.064 186.269 46.96 186.701 46.96C186.925 46.96 187.157 47.056 187.397 47.248C187.637 47.424 187.781 47.6 187.829 47.776C188.053 48.432 188.445 48.936 189.005 49.288C189.565 49.624 190.261 49.792 191.093 49.792C192.053 49.792 192.853 49.616 193.493 49.264C194.149 48.912 194.477 48.44 194.477 47.848C194.477 47.272 194.125 46.76 193.421 46.312C192.717 45.864 191.997 45.552 191.261 45.376C190.205 45.088 189.269 44.744 188.453 44.344C187.605 43.928 186.973 43.416 186.557 42.808C186.141 42.2 185.933 41.56 185.933 40.888C185.933 40.264 186.149 39.632 186.581 38.992C187.013 38.336 187.525 37.864 188.117 37.576C188.437 37.416 188.981 37.248 189.749 37.072C190.533 36.88 191.101 36.784 191.453 36.784C191.901 36.784 192.373 36.84 192.869 36.952C193.365 37.064 193.789 37.224 194.141 37.432C194.845 37.832 195.365 38.192 195.701 38.512C196.037 38.832 196.205 39.232 196.205 39.712C196.205 40 196.093 40.256 195.869 40.48C195.661 40.704 195.293 40.816 194.765 40.816C194.637 40.816 194.509 40.76 194.381 40.648C194.253 40.536 194.093 40.368 193.901 40.144C193.645 39.808 193.397 39.584 193.157 39.472C192.901 39.376 192.581 39.288 192.197 39.208C191.813 39.112 191.453 39.064 191.117 39.064C190.733 39.064 190.333 39.144 189.917 39.304C189.501 39.464 189.149 39.696 188.861 40C188.589 40.288 188.453 40.624 188.453 41.008C188.453 41.328 188.597 41.608 188.885 41.848C189.189 42.072 189.549 42.256 189.965 42.4C190.445 42.592 190.965 42.76 191.525 42.904C192.261 43.128 192.861 43.336 193.325 43.528C193.805 43.704 194.269 43.928 194.717 44.2C195.501 44.664 196.069 45.144 196.421 45.64C196.773 46.12 196.949 46.792 196.949 47.656Z" fill="black"/>
<path opacity="0.75" d="M26.5 55C41.1355 55 53 43.1355 53 28.5C53 13.8645 41.1355 2 26.5 2C11.8645 2 0 13.8645 0 28.5C0 43.1355 11.8645 55 26.5 55Z" fill="#C67D97" fill-opacity="0.8"/>
<path opacity="0.8" d="M33 23C34.6569 23 36 21.6569 36 20C36 18.3431 34.6569 17 33 17C31.3431 17 30 18.3431 30 20C30 21.6569 31.3431 23 33 23Z" fill="#921E42"/>
<path opacity="0.75" d="M25.5242 4.16113C25.7359 6.64242 30.5635 19.9992 19.1721 21.7308L18.0393 21.9209C17.7111 21.9209 13.9422 23.9376 18.8122 27.4325C21.48 29.3542 19.0662 30.8852 18.431 31.1914L13.1376 33.1131C13.1011 33.1131 13.0661 33.1275 13.0403 33.1533C13.0145 33.179 13 33.2139 13 33.2503C13 33.2867 13.0145 33.3216 13.0403 33.3474C13.0661 33.3731 13.1011 33.3876 13.1376 33.3876L16.6524 33.7149L21.7976 34H26.4558L31.7492 33.6621L37.6249 32.2895H37.6884L40.2822 30.4945C40.3119 30.4738 40.3341 30.4442 40.3457 30.41L40.9915 27.7281C40.9971 27.7185 41 27.7076 41 27.6965C41 27.6853 40.9971 27.6744 40.9915 27.6648L40.2716 25.2891L38.313 21.9842C38.313 21.9842 37.7413 21.5196 37.7202 21.5091L37.3285 21.2557C37.3285 21.2557 36.6403 21.678 36.6297 21.6463L35.9839 19.5979L34.5971 17.085L33.3055 15.1738H33.189L32.8079 14.3397L32.6173 14.118L32.215 13.8646C32.215 13.8646 31.5481 13.8646 31.5481 13.7801L31.6645 12.5447C31.6697 12.5204 31.6697 12.4952 31.6645 12.4708L30.1188 9.08148L28.5732 7.01198L26.4558 4.48845L25.7783 4.04498C25.7569 4.02302 25.7293 4.00819 25.6992 4.00255C25.669 3.9969 25.6379 4.0007 25.61 4.01344C25.5822 4.02618 25.5589 4.04723 25.5436 4.07368C25.5282 4.10013 25.5214 4.13068 25.5242 4.16113Z" fill="white"/>
<path d="M39 35L36.5612 49.3167C36.5612 49.3167 34.1964 52.669 26.3733 53C18.5608 52.7117 16.2276 49.1886 16.2276 49.1886L14 35C14 35 17.9379 37.7224 26.5 37.7224C35.0621 37.7224 39 35 39 35Z" fill="url(#paint0_linear)"/>
<path d="M36.71 21C38.2982 21.7552 39.6578 22.8922 40.6576 24.3013C41.1487 25.0374 41.5092 25.8473 41.7245 26.6975C42.0259 27.5765 42.0812 28.5167 41.8845 29.4229C41.6238 30.3581 41.0729 31.1941 40.3055 31.8191C39.5923 32.4066 38.7853 32.8789 37.9156 33.2178C36.2508 33.8632 34.5089 34.3054 32.7303 34.5342C29.2675 35.0061 25.7623 35.1199 22.2745 34.8736C18.8052 34.6812 15.3639 34.1611 12 33.3206C15.4782 33.3206 18.903 33.3206 22.3278 33.3206C25.7232 33.37 29.1186 33.2223 32.4956 32.8784C34.1417 32.7121 35.763 32.3671 37.3288 31.85C38.0613 31.6624 38.7417 31.3207 39.3209 30.8495C39.9002 30.3782 40.3639 29.7892 40.6789 29.1246C40.8672 28.4057 40.8672 27.653 40.6789 26.9341C40.5447 26.1516 40.3006 25.3905 39.9534 24.6715C39.1497 23.2303 38.0192 21.9824 36.6459 21.0206L36.71 21Z" fill="#C27A8F"/>
<path d="M20.0503 26.5476C22.3844 26.3085 24.6983 26.0589 26.972 25.695C28.1023 25.5322 29.2238 25.3101 30.3322 25.0296C31.4065 24.7695 32.4493 24.3859 33.441 23.8859C34.3655 23.476 35.1183 22.7387 35.5638 21.8065C35.8554 20.8051 35.7654 19.7263 35.3122 18.7913C34.2842 16.6737 32.9623 14.7227 31.3886 13C33.3965 14.3612 35.0844 16.1694 36.3284 18.2922C36.6661 18.8874 36.8823 19.5478 36.9636 20.2327C37.0449 20.9176 36.9897 21.6124 36.8012 22.2743C36.6817 22.6132 36.5265 22.9375 36.3384 23.2413C36.1472 23.5333 35.9244 23.8019 35.6744 24.0419C35.4409 24.2793 35.1847 24.4918 34.9098 24.6761C34.6516 24.8763 34.3753 25.0504 34.0848 25.196C31.8737 26.2566 29.4788 26.8471 27.0424 26.9323C24.6892 27.0916 22.3261 26.9695 20 26.5684L20.0503 26.5476Z" fill="#C27A8F"/>
<path d="M21 13.0226C21.3328 12.2165 21.7131 11.4309 22.139 10.6699C22.5694 9.9516 22.9637 9.21217 23.3202 8.45441C23.662 7.71499 23.9441 6.94943 24.1639 6.16503C24.3854 5.34212 24.5858 4.49812 24.7756 3.66466L24.9443 3L25.4506 3.422C26.7088 4.45595 27.8994 5.56951 29.0152 6.75584C30.1877 7.9641 31.0995 9.40049 31.694 10.9759C31.9965 11.7986 32.0765 12.6866 31.926 13.5501C31.7194 14.4212 31.1824 15.1778 30.4284 15.6601C29.0076 16.5083 27.3897 16.9702 25.7353 17C27.2776 16.6846 28.7364 16.0484 30.0171 15.1326C30.573 14.6768 30.9472 14.0367 31.0718 13.3286C31.145 12.6078 31.0287 11.8804 30.7343 11.2185C30.0942 9.81456 29.2599 8.50762 28.2559 7.3361C27.2531 6.14129 26.1409 5.04282 24.9338 4.05501L25.5877 3.82291C25.4084 4.66692 25.2502 5.50038 25.092 6.36549C24.9239 7.24787 24.6365 8.10325 24.2377 8.90806C23.8286 9.69463 23.3296 10.431 22.7507 11.1025C22.2033 11.7746 21.6189 12.4157 21 13.0226Z" fill="#C27A8F"/>
<path d="M34 22C35.6569 22 37 20.6569 37 19C37 17.3431 35.6569 16 34 16C32.3431 16 31 17.3431 31 19C31 20.6569 32.3431 22 34 22Z" fill="#921E42"/>
<path d="M34 16C34.1091 14.89 34.2636 13.7245 34.4545 12.5923C34.6318 11.4581 34.8872 10.3441 35.2182 9.26237C35.3845 8.72253 35.6076 8.21136 35.8818 7.74169C36.0029 7.49152 36.1805 7.28932 36.3934 7.15937C36.6062 7.02942 36.8453 6.97724 37.0818 7.0091C37.5412 7.16607 37.9385 7.52097 38.2 8.00809C38.5006 8.45186 38.7683 8.92732 39 9.42887C38.7659 8.93171 38.5016 8.45677 38.2091 8.00809C37.9384 7.52223 37.536 7.16849 37.0727 7.0091C36.8411 6.98483 36.6087 7.04324 36.4037 7.17724C36.1987 7.31123 36.0301 7.51504 35.9182 7.76389C35.6481 8.22913 35.431 8.73696 35.2727 9.27347C34.9506 10.3561 34.7043 11.47 34.5364 12.6034C34.3545 13.7134 34.2182 14.8234 34.1182 16H34Z" fill="black"/>
<defs>
<linearGradient id="paint0_linear" x1="39" y1="44" x2="14" y2="44" gradientUnits="userSpaceOnUse">
<stop stop-color="#E0A154"/>
<stop offset="0.801243" stop-color="#921E42"/>
</linearGradient>
</defs>
</svg>
