<svg width="50" height="140" viewBox="0 0 50 140" fill="none" xmlns="http://www.w3.org/2000/svg">
<g clip-path="url(#clip0)">
<path d="M45.5125 69.6844C43.5408 67.5133 40.438 67.3283 38.2717 69.1219C36.31 67.4977 33.5806 67.4977 31.6189 69.1219C29.6572 67.4977 26.9278 67.4977 24.9661 69.1219C23.0044 67.4977 20.2751 67.4977 18.3133 69.1219C16.3516 67.4977 13.6223 67.4977 11.6605 69.1219C9.49418 67.3274 6.39155 67.5142 4.41977 69.6844C4.21273 69.9116 4.12954 70.2414 4.20025 70.5537L9.18982 92.5391C9.28217 92.9468 9.61472 93.2335 9.99651 93.2335H39.9341C40.3158 93.2335 40.6475 92.9468 40.7415 92.5391L45.7311 70.5537C45.8027 70.2414 45.7186 69.9116 45.5125 69.6844ZM39.2846 91.4013H10.646L5.93583 70.6471C7.45433 69.3244 9.6705 69.4388 11.0727 70.9796C11.397 71.3378 11.9234 71.3378 12.2477 70.9796C13.7579 69.3188 16.2152 69.3188 17.7255 70.9796C18.0498 71.3378 18.5762 71.3378 18.9005 70.9796C20.4107 69.3188 22.868 69.3188 24.3783 70.9796C24.7026 71.3378 25.229 71.3378 25.5533 70.9796C27.0626 69.3188 29.5217 69.3188 31.0302 70.9796C31.3553 71.3378 31.8809 71.3378 32.2061 70.9796C33.7154 69.3188 36.1745 69.3188 37.683 70.9796C38.0081 71.3378 38.5337 71.3378 38.8589 70.9796C40.2593 69.4397 42.4763 69.3271 43.9956 70.6471L39.2846 91.4013Z" fill="#E3183D"/>
<path d="M48.7706 62.2323C47.9391 61.134 46.7781 60.4469 45.4924 60.2902C45.3295 59.8487 45.0799 59.1689 44.8072 58.4022C41.6612 49.5109 34.0314 43.7664 25.3686 43.7664C25.3586 43.7673 25.3502 43.7664 25.3412 43.7664C16.8032 43.7664 8.9894 49.653 5.89174 58.4288L5.2639 60.2563H5.24225C2.60606 60.1895 0.345809 62.3266 0.0206738 65.2571C-0.0990822 66.7191 0.305045 68.1454 1.15914 69.2731C2.01323 70.4007 3.214 71.0933 4.53873 71.2261C4.69593 71.2416 4.85636 71.2462 5.01278 71.2481L5.00196 69.4159C4.90131 69.4205 4.79658 69.4123 4.69096 69.4004C3.80615 69.3124 3.00619 68.8498 2.43647 68.0987C1.86685 67.3476 1.5974 66.3966 1.67473 65.4503C1.89347 63.4881 3.4186 62.0454 5.22401 62.0875H5.83937C6.1845 62.0875 6.49471 61.852 6.61691 61.4957L7.44603 59.0846C10.2942 51.015 17.4843 45.5984 25.3437 45.5984C25.352 45.5984 25.3595 45.5984 25.3687 45.5984C33.3403 45.5984 40.3632 50.8849 43.2588 59.069C43.7445 60.4348 44.1545 61.5232 44.1545 61.5232C44.2834 61.8649 44.5869 62.0875 44.9228 62.0875C44.9237 62.0875 44.9245 62.0875 44.9254 62.0875C45.0293 62.081 45.1357 62.0921 45.2397 62.103C46.1245 62.191 46.9253 62.6536 47.4942 63.4047C48.0638 64.1568 48.3332 65.1068 48.2559 66.0531C48.0414 67.985 46.5661 69.4169 44.8073 69.4169C44.7799 69.4169 44.7532 69.4169 44.7257 69.4159L44.6883 71.2481C44.7282 71.249 44.7682 71.249 44.8089 71.249C47.4084 71.249 49.5898 69.132 49.9083 66.2483C50.0288 64.7862 49.6238 63.3591 48.7706 62.2323Z" fill="#E3183D"/>
<path d="M25.7961 73.9954H24.1329V88.6523H25.7961V73.9954Z" fill="#E3183D"/>
<path d="M20.8088 73.9451L19.1487 74.0608L19.9709 88.7185L21.631 88.6028L20.8088 73.9451Z" fill="#E3183D"/>
<path d="M34.1118 73.8871L32.4559 88.5413L34.1062 88.7693L35.7621 74.1152L34.1118 73.8871Z" fill="#E3183D"/>
<path d="M29.1214 73.9425L28.2883 88.5969L29.9481 88.7114L30.7812 74.057L29.1214 73.9425Z" fill="#E3183D"/>
<path d="M10.815 73.8301L9.18021 74.1677L11.6753 88.8256L13.31 88.488L10.815 73.8301Z" fill="#E3183D"/>
<path d="M15.8102 73.8842L14.1599 74.1123L15.8158 88.7665L17.4661 88.5384L15.8102 73.8842Z" fill="#E3183D"/>
<path d="M39.1153 73.8244L36.6162 88.4802L38.25 88.8183L40.749 74.1624L39.1153 73.8244Z" fill="#E3183D"/>
</g>
<line x1="25.5" x2="25.5" y2="30" stroke="#E3183D"/>
<line x1="25.5" y1="110" x2="25.5" y2="140" stroke="#E3183D"/>
<defs>
<clipPath id="clip0">
<rect width="49.9291" height="55" fill="white" transform="translate(0 41)"/>
</clipPath>
</defs>
</svg>
