<svg width="80" height="80" viewBox="0 0 80 80" fill="none" xmlns="http://www.w3.org/2000/svg">
<circle cx="40" cy="40" r="40" fill="url(#paint0_linear)"/>
<g clip-path="url(#clip0)">
<path d="M43.0256 19.8817V21.0257C41.887 21.4286 41.0691 22.5139 41.0691 23.7868C41.0691 25.4016 42.3854 26.7157 44.0037 26.7157C44.543 26.7157 44.9818 27.1537 44.9818 27.6919C44.9818 28.2302 44.543 28.6681 44.0037 28.6681C43.586 28.6681 43.1346 28.406 42.7336 27.9296C42.3858 27.5168 41.7689 27.4638 41.3553 27.8106C40.9418 28.1577 40.8883 28.7734 41.2361 29.1861C41.759 29.8068 42.3739 30.2394 43.0256 30.4576V31.597C43.0256 32.1364 43.4636 32.5732 44.0037 32.5732C44.5438 32.5732 44.9818 32.1364 44.9818 31.597V30.453C46.1204 30.0498 46.9384 28.9645 46.9384 27.6919C46.9384 26.0768 45.622 24.763 44.0037 24.763C43.4644 24.763 43.0256 24.3251 43.0256 23.7868C43.0256 23.2486 43.4644 22.8103 44.0037 22.8103C44.3504 22.8103 44.7162 22.9869 45.0617 23.3207C45.45 23.6957 46.0692 23.6854 46.4449 23.2982C46.8207 22.9106 46.8103 22.2926 46.4224 21.9176C45.9259 21.4381 45.429 21.1669 44.9818 21.0189V19.8817C44.9818 19.3423 44.5438 18.9052 44.0037 18.9052C43.4636 18.9052 43.0256 19.3423 43.0256 19.8817Z" fill="white"/>
<path d="M26.3163 64.7112C26.6954 65.0927 27.3127 65.0969 27.6968 64.7192L32.4394 60.0561C33.2451 59.252 33.4901 58.0614 33.1358 57.0265L34.1559 56.0446C34.7052 55.5151 35.4283 55.2233 36.1927 55.2233H49.1969C51.5039 55.2233 53.6845 54.339 55.3376 52.7334C55.4056 52.6674 54.8212 53.3545 64.2092 42.156C65.6016 40.5119 65.3933 38.043 63.7444 36.6518C62.1059 35.2735 59.6513 35.4715 58.255 37.0874L52.4828 43.0086C51.7539 42.1133 50.6424 41.5552 49.4415 41.5552H38.5334C36.9812 40.9071 35.3343 40.579 33.6349 40.579C28.9245 40.579 24.8115 42.7503 22.6042 46.8214C21.6743 46.6455 20.6935 46.9263 19.9879 47.6305L15.3344 52.2886C14.9545 52.6689 14.9537 53.2843 15.3329 53.6657L26.3163 64.7112ZM33.6346 42.5314C35.1329 42.5314 36.5815 42.8324 37.941 43.4259C38.0648 43.4801 38.1982 43.5079 38.3331 43.5079H49.4415C50.5022 43.5079 51.3981 44.3712 51.3981 45.4603C51.3981 46.5372 50.5205 47.4131 49.4415 47.4131H41.4604C40.9204 47.4131 40.4824 47.8502 40.4824 48.3892C40.4824 48.9286 40.9204 49.3654 41.4604 49.3654H49.4415C51.5991 49.3654 53.3542 47.6137 53.3542 45.4603C53.3542 45.2887 53.342 45.1185 53.3198 44.9499C58.9036 39.2214 59.691 38.4165 59.7246 38.3764C60.4218 37.5551 61.6594 37.451 62.4827 38.1437C63.3068 38.8391 63.4111 40.0736 62.712 40.8995L53.9383 51.3678C52.6571 52.5953 50.975 53.2709 49.1969 53.2709H36.1927C34.9184 53.2709 33.7122 53.7573 32.7971 54.6396L31.9658 55.4403L24.3024 47.7922C26.0934 44.4387 29.4543 42.5314 33.6346 42.5314ZM21.3723 49.0103C21.6949 48.6883 22.1902 48.6303 22.5835 48.8729C22.7529 48.9759 22.2667 48.5342 31.0561 57.2943C31.4471 57.6845 31.4261 58.3063 31.0615 58.6702L27.0184 62.6455L17.4068 52.9795L21.3723 49.0103Z" fill="white"/>
<path d="M33.4393 25.7391C33.4393 31.6607 38.2663 36.4787 44.1994 36.4787C50.1326 36.4787 54.9596 31.6607 54.9596 25.7391C54.9596 19.8176 50.1326 15 44.1994 15C38.2663 15 33.4393 19.8176 33.4393 25.7391ZM53.0034 25.7391C53.0034 30.5842 49.054 34.5259 44.1994 34.5259C39.3449 34.5259 35.3955 30.5842 35.3955 25.7391C35.3955 20.8945 39.3449 16.9527 44.1994 16.9527C49.054 16.9527 53.0034 20.8945 53.0034 25.7391Z" fill="white"/>
<path d="M38.0717 48.9127C38.4535 48.5308 38.4535 47.9129 38.0717 47.531C37.6895 47.1503 37.0703 47.1503 36.6877 47.531C36.3062 47.9129 36.3062 48.5308 36.6877 48.9127C37.0703 49.2934 37.6895 49.2934 38.0717 48.9127Z" fill="white"/>
</g>
<defs>
<linearGradient id="paint0_linear" x1="40" y1="0" x2="40" y2="80" gradientUnits="userSpaceOnUse">
<stop stop-color="#733932"/>
<stop offset="1" stop-color="#E3183D"/>
</linearGradient>
<clipPath id="clip0">
<rect width="50" height="50" fill="white" transform="translate(15 15)"/>
</clipPath>
</defs>
</svg>
