<svg width="80" height="80" viewBox="0 0 80 80" fill="none" xmlns="http://www.w3.org/2000/svg">
<circle cx="40" cy="40" r="40" fill="url(#paint0_linear)"/>
<g clip-path="url(#clip0)">
<path d="M54.5931 33.7791C54.2201 33.6225 53.7908 33.7979 53.6343 34.171L48.9558 45.3188C48.599 46.1689 49.9401 46.7591 50.3066 45.8857L54.9851 34.7379C55.1415 34.3648 54.966 33.9356 54.5931 33.7791Z" fill="white"/>
<path d="M49.7313 33.722C48.6145 33.722 47.7061 34.7246 47.7061 35.9568C47.7061 37.189 48.6146 38.1916 49.7313 38.1916C50.848 38.1916 51.7566 37.189 51.7566 35.9568C51.7566 34.7246 50.8481 33.722 49.7313 33.722ZM49.7313 36.7268C49.4275 36.7268 49.1709 36.3743 49.1709 35.9569C49.1709 35.5395 49.4275 35.187 49.7313 35.187C50.0352 35.187 50.2918 35.5395 50.2918 35.9569C50.2918 36.3743 50.0353 36.7268 49.7313 36.7268Z" fill="white"/>
<path d="M52.184 44.0999C52.184 45.3322 53.0926 46.3346 54.2093 46.3346C55.326 46.3346 56.2344 45.3321 56.2344 44.0999C56.2344 42.8677 55.326 41.8651 54.2093 41.8651C53.0926 41.8651 52.184 42.8677 52.184 44.0999ZM54.7696 44.0999C54.7696 44.5173 54.513 44.8698 54.2093 44.8698C53.9054 44.8698 53.6488 44.5173 53.6488 44.0999C53.6488 43.6825 53.9054 43.33 54.2093 43.33C54.513 43.33 54.7696 43.6825 54.7696 44.0999Z" fill="white"/>
<path d="M27.0376 46.7018C27.4421 46.7018 27.77 46.3739 27.77 45.9694V34.0873C27.77 33.6828 27.4421 33.3549 27.0376 33.3549H24.4979C24.0934 33.3549 23.7654 33.6828 23.7654 34.0873C23.7654 34.4918 24.0934 34.8197 24.4979 34.8197H26.3051V45.9694C26.3052 46.3739 26.6331 46.7018 27.0376 46.7018Z" fill="white"/>
<path d="M29.3345 37.2809V42.7759C29.3345 45.0744 31.2044 46.9444 33.5029 46.9444C35.8015 46.9444 37.6714 45.0744 37.6714 42.7759V37.2809C37.6714 34.9824 35.8015 33.1124 33.5029 33.1124C31.2044 33.1124 29.3345 34.9824 29.3345 37.2809ZM30.7993 37.2809C30.7993 35.7901 32.0121 34.5773 33.5029 34.5773C34.9937 34.5773 36.2065 35.7901 36.2065 37.2809V42.7759C36.2065 44.2667 34.9937 45.4795 33.5029 45.4795C32.0121 45.4795 30.7993 44.2667 30.7993 42.7759V37.2809Z" fill="white"/>
<path d="M38.4907 37.2809V42.7759C38.4907 45.0744 40.3606 46.9444 42.6592 46.9444C44.9577 46.9444 46.8276 45.0744 46.8276 42.7759V37.2809C46.8276 34.9824 44.9577 33.1124 42.6592 33.1124C40.3606 33.1124 38.4907 34.9824 38.4907 37.2809ZM45.3627 37.2809V42.7759C45.3627 44.2667 44.1499 45.4795 42.6591 45.4795C41.1683 45.4795 39.9555 44.2667 39.9555 42.7759V37.2809C39.9555 35.7901 41.1683 34.5773 42.6591 34.5773C44.1499 34.5773 45.3627 35.7902 45.3627 37.2809Z" fill="white"/>
<path d="M57.6777 22.3507C52.9558 17.6288 46.6777 15.0284 40 15.0284C33.3223 15.0284 27.0442 17.6288 22.3223 22.3507C17.6005 27.0726 15 33.3507 15 40.0284C15 46.4104 17.4047 52.486 21.771 57.1361C26.1171 61.7646 31.9888 64.5467 38.3043 64.97C38.3209 64.9711 38.3375 64.9717 38.354 64.9717C38.7362 64.9717 39.0581 64.6751 39.0841 64.2882C39.1111 63.8846 38.8059 63.5355 38.4022 63.5084C32.4577 63.11 26.9306 60.4907 22.8389 56.1333C18.7285 51.7559 16.4648 46.0364 16.4648 40.0284C16.4648 33.7419 18.9129 27.8318 23.3581 23.3865C27.8033 18.9413 33.7135 16.4933 40 16.4933C46.2864 16.4933 52.1967 18.9413 56.6418 23.3865C61.0871 27.8318 63.5352 33.7419 63.5352 40.0284C63.5352 45.9382 61.3357 51.5885 57.3419 55.9385C53.3726 60.2618 47.9807 62.9345 42.1596 63.464C41.7567 63.5006 41.4599 63.8569 41.4966 64.2597C41.5331 64.6625 41.8886 64.959 42.2923 64.9228C48.4768 64.3603 54.2046 61.5214 58.4208 56.9292C62.6635 52.3082 65 46.3061 65 40.0284C65 33.3507 62.3995 27.0727 57.6777 22.3507Z" fill="white"/>
<path d="M31.7884 28.053C31.2694 28.8118 32.4393 29.6961 32.9975 28.8799C33.3652 28.3422 33.7735 27.8516 34.2116 27.4122C34.5183 28.0303 34.9701 28.5755 35.5866 28.9658C36.3868 29.4723 37.1703 28.2346 36.3701 27.7281C35.8943 27.4269 35.5677 26.9543 35.3753 26.416C37.1008 25.1658 39.102 24.6319 40.9106 25.0428C41.834 25.2536 42.1587 23.8243 41.2352 23.6144C39.1538 23.1413 36.9768 23.6813 35.1817 24.779C35.226 24.3093 35.3685 23.8839 35.5748 23.466C36.7027 21.3058 39.5309 20.7607 41.616 21.4823C44.0852 22.339 45.6932 24.4899 46.4837 26.9133C44.4724 26.2951 42.2471 27.2779 40.5208 28.0405C39.4027 28.565 40.1198 29.683 41.1128 29.3804C43.1571 28.4772 45.4741 27.4535 47.118 28.9294C47.625 29.3845 48.4477 28.9259 48.3282 28.2547C48.0009 26.4366 47.3209 24.7479 46.3615 23.3715C45.2484 21.7745 43.7709 20.6419 42.0882 20.0957C40.6689 19.6062 39.1093 19.5785 37.6954 20.0176C36.1737 20.4904 34.9581 21.4771 34.2722 22.7961C33.7895 23.7353 33.6139 24.7832 33.747 25.8359C33.0214 26.4702 32.3618 27.2145 31.7884 28.053Z" fill="white"/>
<path d="M36.7985 59.4615C39.7299 60.9721 43.977 60.4835 45.652 57.3606C46.2085 56.323 46.4211 55.2308 46.2843 54.1932C46.9974 53.5648 47.6465 52.8303 48.2117 52.0039C48.7465 51.2223 47.5376 50.3956 47.0027 51.1769C46.6352 51.7141 46.2273 52.2043 45.7896 52.6433C45.2282 51.5899 44.2664 50.8035 43.0357 50.4053C41.0397 49.7593 39.2972 50.4741 37.76 51.1048C35.9535 51.846 34.5268 52.4314 32.8484 51.0988C32.3252 50.6834 31.5442 51.1603 31.6746 51.8154C32.1811 54.36 33.4812 57.752 36.7985 59.4615ZM38.3159 52.46C39.7472 51.8729 41.099 51.3184 42.5847 51.799C43.5591 52.1143 44.2869 52.7628 44.634 53.6251C44.6349 53.6273 44.6356 53.6295 44.6364 53.6318C42.9081 54.8882 40.9019 55.4257 39.0894 55.0139C38.166 54.8039 37.8412 56.2324 38.7648 56.4423C40.849 56.9159 43.0297 56.3737 44.8264 55.2726C44.7546 55.7654 44.5995 56.2305 44.361 56.6681C43.0935 59.0312 39.7742 59.347 37.4694 58.1592C35.3064 57.0446 34.1484 55.0237 33.5292 53.1342C35.2614 53.713 36.8633 53.056 38.3159 52.46Z" fill="white"/>
</g>
<defs>
<linearGradient id="paint0_linear" x1="40" y1="0" x2="40" y2="80" gradientUnits="userSpaceOnUse">
<stop stop-color="#733932"/>
<stop offset="1" stop-color="#E3183D"/>
</linearGradient>
<clipPath id="clip0">
<rect width="50" height="50" fill="white" transform="translate(15 15)"/>
</clipPath>
</defs>
</svg>
