<svg width="80" height="80" viewBox="0 0 80 80" fill="none" xmlns="http://www.w3.org/2000/svg">
<circle cx="40" cy="40" r="40" fill="url(#paint0_linear)"/>
<g clip-path="url(#clip0)">
<path d="M57.7083 65H22.2916C20.5687 65 19.1666 63.5979 19.1666 61.875V41.0417C19.1666 40.4667 19.6333 40 20.2083 40H59.7916C60.3666 40 60.8333 40.4667 60.8333 41.0417V61.875C60.8333 63.5979 59.4312 65 57.7083 65ZM21.25 42.0833V61.875C21.25 62.4479 21.7187 62.9167 22.2916 62.9167H57.7083C58.2812 62.9167 58.75 62.4479 58.75 61.875V42.0833H21.25Z" fill="white"/>
<path d="M61.875 42.0833H18.125C16.4021 42.0833 15 40.6812 15 38.9583V32.7083C15 30.9853 16.4021 29.5833 18.125 29.5833H61.875C63.5979 29.5833 65 30.9853 65 32.7083V38.9583C65 40.6812 63.5979 42.0833 61.875 42.0833ZM18.125 31.6666C17.5521 31.6666 17.0833 32.1353 17.0833 32.7083V38.9583C17.0833 39.5312 17.5521 39.9999 18.125 39.9999H61.875C62.4479 39.9999 62.9167 39.5312 62.9167 38.9583V32.7083C62.9167 32.1353 62.4479 31.6666 61.875 31.6666H18.125Z" fill="white"/>
<path d="M40 31.6667C39.6979 31.6667 39.4104 31.5375 39.2125 31.3063C39.0146 31.0792 38.925 30.7771 38.9688 30.4792C38.9917 30.3229 41.3208 15 53.5417 15C58.925 15 60.8354 17.9083 60.8354 20.3979C60.8354 25.0771 54.3708 31.6667 40 31.6667ZM53.5417 17.0833C44.975 17.0833 42.0542 26.2188 41.2729 29.5625C52.6875 29.2083 58.7521 24.1125 58.7521 20.3979C58.7521 19.4729 58.3625 18.7104 57.5979 18.1375C56.6813 17.4479 55.2771 17.0833 53.5417 17.0833Z" fill="white"/>
<path d="M40.002 31.6667C25.6312 31.6667 19.1666 25.0771 19.1666 20.3979C19.1666 18.8271 19.8729 17.4313 21.152 16.4708C22.4333 15.5083 24.2687 15 26.4604 15C38.6812 15 41.0104 30.3229 41.0333 30.4792C41.077 30.7792 40.9875 31.0792 40.7895 31.3063C40.5916 31.5375 40.3041 31.6667 40.002 31.6667ZM26.4604 17.0833C23.2458 17.0833 21.25 18.3521 21.25 20.3979C21.25 24.1146 27.3187 29.2104 38.7395 29.5646C37.9833 26.2 35.1354 17.0833 26.4604 17.0833Z" fill="white"/>
<path d="M40 64.9999C39.425 64.9999 38.9584 64.5332 38.9584 63.9583V30.6249C38.9584 30.0499 39.425 29.5833 40 29.5833C40.575 29.5833 41.0417 30.0499 41.0417 30.6249V63.9583C41.0417 64.5332 40.575 64.9999 40 64.9999Z" fill="white"/>
</g>
<defs>
<linearGradient id="paint0_linear" x1="40" y1="0" x2="40" y2="80" gradientUnits="userSpaceOnUse">
<stop stop-color="#733932"/>
<stop offset="1" stop-color="#E3183D"/>
</linearGradient>
<clipPath id="clip0">
<rect width="50" height="50" fill="white" transform="translate(15 15)"/>
</clipPath>
</defs>
</svg>
