<svg width="73" height="17" viewBox="0 0 73 17" fill="none" xmlns="http://www.w3.org/2000/svg">
<path d="M11.504 11.656C11.504 12.408 11.328 13.056 10.976 13.6C10.64 14.128 10.08 14.616 9.296 15.064C8.768 15.384 8.152 15.624 7.448 15.784C6.744 15.944 6.032 16.024 5.312 16.024C4.576 16.024 3.664 15.784 2.576 15.304C1.792 14.92 1.168 14.464 0.704 13.936C0.256 13.408 0.032 12.832 0.032 12.208C0.032 11.776 0.128 11.464 0.32 11.272C0.512 11.064 0.824 10.96 1.256 10.96C1.48 10.96 1.712 11.056 1.952 11.248C2.192 11.424 2.336 11.6 2.384 11.776C2.608 12.432 3 12.936 3.56 13.288C4.12 13.624 4.816 13.792 5.648 13.792C6.608 13.792 7.408 13.616 8.048 13.264C8.704 12.912 9.032 12.44 9.032 11.848C9.032 11.272 8.68 10.76 7.976 10.312C7.272 9.864 6.552 9.552 5.816 9.376C4.76 9.088 3.824 8.744 3.008 8.344C2.16 7.928 1.528 7.416 1.112 6.808C0.696 6.2 0.488 5.56 0.488 4.888C0.488 4.264 0.704 3.632 1.136 2.992C1.568 2.336 2.08 1.864 2.672 1.576C2.992 1.416 3.536 1.248 4.304 1.072C5.088 0.88 5.656 0.784 6.008 0.784C6.472 0.784 6.984 0.84 7.544 0.951999C8.104 1.064 8.56 1.224 8.912 1.432C9.616 1.832 10.136 2.192 10.472 2.512C10.808 2.832 10.976 3.232 10.976 3.712C10.976 4 10.864 4.256 10.64 4.48C10.432 4.704 10.064 4.816 9.536 4.816C9.408 4.816 9.28 4.76 9.152 4.648C9.024 4.536 8.864 4.368 8.672 4.144C8.416 3.808 8.168 3.584 7.928 3.472C7.688 3.392 7.336 3.304 6.872 3.208C6.424 3.112 6.024 3.064 5.672 3.064C5.288 3.064 4.888 3.144 4.472 3.304C4.056 3.464 3.704 3.696 3.416 4C3.144 4.288 3.008 4.624 3.008 5.008C3.008 5.328 3.152 5.608 3.44 5.848C3.744 6.072 4.104 6.256 4.52 6.4C5 6.592 5.52 6.76 6.08 6.904C6.816 7.128 7.416 7.336 7.88 7.528C8.36 7.704 8.824 7.928 9.272 8.2C10.056 8.664 10.624 9.144 10.976 9.64C11.328 10.12 11.504 10.792 11.504 11.656ZM29.8526 2.128C29.9486 1.792 30.0926 1.52 30.2846 1.312C30.4766 1.088 30.6846 0.975999 30.9086 0.975999C31.4526 0.975999 31.8446 1.08 32.0846 1.288C32.3246 1.496 32.4446 1.856 32.4446 2.368C32.4446 2.512 32.3326 2.92 32.1086 3.592C31.6126 5.112 31.0686 6.992 30.4766 9.232C30.3326 9.744 30.2126 10.192 30.1166 10.576C30.0366 10.96 29.9646 11.28 29.9006 11.536C29.5166 13.184 29.1806 14.424 28.8926 15.256C28.7966 15.496 28.6286 15.688 28.3886 15.832C28.1486 15.96 27.8926 16.024 27.6206 16.024C27.3486 16.024 27.0766 15.968 26.8046 15.856C26.5486 15.728 26.3646 15.584 26.2526 15.424C25.7726 14.48 25.1646 13 24.4286 10.984C23.6926 8.952 23.1246 7.032 22.7246 5.224C22.3566 6.952 21.9566 8.504 21.5246 9.88C21.1086 11.256 20.6286 12.704 20.0846 14.224C20.0206 14.416 19.9566 14.6 19.8926 14.776C19.8286 14.936 19.7726 15.096 19.7246 15.256C19.6126 15.496 19.4526 15.688 19.2446 15.832C19.0366 15.96 18.8046 16.024 18.5486 16.024C18.2606 16.024 17.9806 15.968 17.7086 15.856C17.4366 15.728 17.2526 15.584 17.1566 15.424C16.9486 15.072 16.7246 14.528 16.4846 13.792C16.2606 13.056 15.9566 12.024 15.5726 10.696L14.9726 8.656C14.5566 7.328 14.1966 5.968 13.8926 4.576C13.5886 3.184 13.4366 2.352 13.4366 2.08C13.4366 1.744 13.6046 1.48 13.9406 1.288C14.2766 1.08 14.6126 0.975999 14.9486 0.975999C15.1406 0.975999 15.3406 1.04 15.5486 1.168C15.7566 1.28 15.8926 1.48 15.9566 1.768C16.5166 4.76 17.3406 8.232 18.4286 12.184C18.7006 11.56 18.9566 10.824 19.1966 9.976C19.4526 9.112 19.7966 7.904 20.2286 6.352C20.7886 4.32 21.2126 2.872 21.5006 2.008C21.5646 1.768 21.7246 1.576 21.9806 1.432C22.2526 1.288 22.5246 1.216 22.7966 1.216C23.1486 1.216 23.4366 1.312 23.6606 1.504C23.8846 1.68 24.0286 1.872 24.0926 2.08L24.2846 2.824C24.7806 4.696 25.2766 6.448 25.7726 8.08C26.2686 9.712 26.7726 11.08 27.2846 12.184C27.6046 11.24 27.9886 9.728 28.4366 7.648L28.7966 6.064C29.2286 4.368 29.5806 3.056 29.8526 2.128ZM44.5758 12.736C44.8798 12.736 45.1038 12.856 45.2478 13.096C45.4078 13.32 45.4878 13.568 45.4878 13.84C45.4878 14.176 45.4318 14.416 45.3198 14.56C45.2238 14.688 45.0318 14.824 44.7438 14.968C44.0718 15.288 43.2398 15.544 42.2478 15.736C41.2558 15.928 40.1918 16.024 39.0558 16.024C37.6318 16.024 36.5838 15.784 35.9118 15.304C35.2558 14.824 34.8478 14.248 34.6878 13.576C34.5438 12.888 34.4718 11.992 34.4718 10.888C34.4718 9.704 34.5198 8.544 34.6158 7.408C34.7118 6.256 34.8798 4.792 35.1198 3.016C35.2318 2.248 35.5358 1.696 36.0318 1.36C36.5278 1.008 37.0718 0.831999 37.6638 0.831999C38.1598 0.831999 38.9678 0.816 40.0878 0.784L42.1758 0.759999C43.0398 0.759999 43.6638 0.783999 44.0478 0.831999C44.5278 0.927999 44.8798 1.04 45.1038 1.168C45.3438 1.28 45.4638 1.48 45.4638 1.768C45.4638 2.088 45.3518 2.4 45.1278 2.704C44.9198 3.008 44.5998 3.16 44.1678 3.16C43.6718 3.16 42.9598 3.128 42.0318 3.064C41.1038 3 40.4078 2.968 39.9438 2.968C39.5438 2.968 39.1518 2.992 38.7678 3.04C38.3198 3.072 37.9998 3.128 37.8078 3.208C37.6158 3.288 37.5038 3.424 37.4718 3.616C37.2478 5.264 37.1358 6.48 37.1358 7.264C37.5038 7.312 37.8638 7.336 38.2158 7.336C38.6638 7.336 39.1438 7.312 39.6558 7.264C40.1678 7.216 40.4958 7.184 40.6398 7.168C41.4878 7.088 42.2158 7.048 42.8238 7.048C43.1758 7.048 43.4398 7.112 43.6158 7.24C43.8078 7.368 43.9038 7.544 43.9038 7.768C43.9038 8.12 43.8078 8.392 43.6158 8.584C43.4398 8.776 43.1198 8.92 42.6558 9.016C42.0958 9.128 41.3998 9.216 40.5678 9.28C39.7518 9.344 38.9518 9.376 38.1678 9.376C37.8958 9.376 37.5198 9.36 37.0398 9.328C36.9918 10.304 36.9678 11.208 36.9678 12.04C36.9678 13.176 37.7198 13.744 39.2238 13.744C40.0238 13.744 40.6878 13.688 41.2158 13.576C41.7438 13.464 42.3518 13.304 43.0398 13.096C43.6798 12.856 44.1918 12.736 44.5758 12.736ZM58.898 14.464C58.914 14.8 58.874 15.04 58.778 15.184C58.682 15.312 58.49 15.448 58.202 15.592C57.77 15.8 57.258 15.936 56.666 16C56.09 16.064 55.346 16.096 54.434 16.096H52.802C51.378 16.096 50.322 15.856 49.634 15.376C48.946 14.88 48.514 14.288 48.338 13.6C48.162 12.912 48.058 12.024 48.026 10.936C48.01 10.568 48.002 10.024 48.002 9.304C48.002 7.736 48.138 5.64 48.41 3.016C48.49 2.248 48.77 1.696 49.25 1.36C49.73 1.008 50.274 0.831999 50.882 0.831999C51.378 0.831999 52.186 0.816 53.306 0.784L55.418 0.759999C56.282 0.759999 56.906 0.783999 57.29 0.831999C57.77 0.927999 58.13 1.04 58.37 1.168C58.61 1.28 58.738 1.48 58.754 1.768C58.754 2.088 58.65 2.4 58.442 2.704C58.234 3.008 57.914 3.16 57.482 3.16C56.986 3.16 56.274 3.128 55.346 3.064C54.418 3 53.714 2.968 53.234 2.968C52.802 2.968 52.41 2.992 52.058 3.04C51.61 3.072 51.29 3.128 51.098 3.208C50.906 3.288 50.802 3.424 50.786 3.616C50.61 5.36 50.538 6.576 50.57 7.264C50.938 7.312 51.306 7.336 51.674 7.336C52.042 7.336 52.546 7.304 53.186 7.24C53.346 7.224 53.546 7.208 53.786 7.192C54.026 7.176 54.298 7.168 54.602 7.168C54.778 7.168 55.058 7.184 55.442 7.216L56.186 7.24C56.922 7.24 57.29 7.504 57.29 8.032C57.29 8.352 57.202 8.608 57.026 8.8C56.85 8.992 56.538 9.136 56.09 9.232C55.482 9.344 54.498 9.4 53.138 9.4H51.674C51.37 9.4 50.994 9.384 50.546 9.352C50.53 9.64 50.522 10.056 50.522 10.6C50.522 11.304 50.53 11.8 50.546 12.088C50.594 13.208 51.37 13.768 52.874 13.768C53.386 13.768 53.93 13.784 54.506 13.816L55.394 13.84C55.81 13.84 56.154 13.8 56.426 13.72C56.698 13.624 56.962 13.544 57.218 13.48C57.49 13.4 57.738 13.36 57.962 13.36C58.266 13.36 58.498 13.48 58.658 13.72C58.818 13.944 58.898 14.192 58.898 14.464ZM59.9437 2.008C59.9437 1.32 60.4477 0.975999 61.4557 0.975999C61.8877 0.975999 62.7117 0.991999 63.9277 1.024C65.2717 1.088 66.2877 1.12 66.9757 1.12C67.5357 1.12 68.2157 1.088 69.0157 1.024C69.5597 0.991999 69.9037 0.975999 70.0477 0.975999C70.9277 1.008 71.6717 1.168 72.2797 1.456C72.4557 1.536 72.5997 1.632 72.7117 1.744C72.8237 1.856 72.8797 2.04 72.8797 2.296C72.8797 2.648 72.7677 2.952 72.5437 3.208C72.3197 3.448 72.0477 3.568 71.7277 3.568C71.3757 3.568 70.8637 3.52 70.1917 3.424C69.5997 3.312 69.0797 3.256 68.6317 3.256C68.1997 3.256 67.8717 3.264 67.6477 3.28C67.5997 3.808 67.5757 5.072 67.5757 7.072C67.5757 9.456 67.6477 11.872 67.7917 14.32L67.8397 15.016C67.8397 15.672 67.4637 16 66.7117 16C66.1197 16 65.7197 15.864 65.5117 15.592C65.3037 15.304 65.1997 14.872 65.1997 14.296C65.1997 13.16 65.1677 11.744 65.1037 10.048C65.0397 8.64 65.0077 7.64 65.0077 7.048C65.0077 6.648 65.0557 5.424 65.1517 3.376L62.3437 3.4C61.4477 3.4 60.8237 3.32 60.4717 3.16C60.1197 2.984 59.9437 2.6 59.9437 2.008Z" fill="black"/>
</svg>
