<svg width="30" height="30" viewBox="0 0 30 30" fill="none" xmlns="http://www.w3.org/2000/svg">
<rect x="1" y="1" width="28" height="28" rx="9" fill="black" stroke="black" stroke-width="2"/>
<path d="M6.21049 10.1018C6.84601 10.1018 7.81443 10.1018 8.35917 10.1018C8.63154 10.1018 8.84338 10.2789 8.93417 10.5149C9.20654 11.2821 9.8118 12.9641 10.5079 14.1149C11.446 15.6198 12.0513 16.1805 12.4447 16.1215C12.8381 16.033 12.7171 15.0297 12.7171 14.233C12.7171 13.4362 12.8079 12.0789 12.4144 11.4592L11.8092 10.6034C11.6579 10.3969 11.8092 10.1313 12.0513 10.1313H15.5013C15.8342 10.1313 16.1065 10.3969 16.1065 10.7215V15.0002C16.1065 15.0002 16.2579 15.7674 17.1052 14.9707C17.9526 14.1739 18.8605 12.6985 19.6171 11.1936L19.9197 10.4854C20.0105 10.2789 20.2223 10.1313 20.4644 10.1313H22.7039C23.1276 10.1313 23.4302 10.5444 23.2789 10.928L23.0368 11.5477C23.0368 11.5477 22.2197 13.1412 21.3723 14.2625C20.525 15.4133 20.3434 15.6789 20.4644 15.9739C20.5855 16.269 22.7644 18.2461 23.3092 19.1903C23.4605 19.4559 23.5815 19.692 23.7026 19.8985C23.9144 20.2821 23.6118 20.7838 23.1579 20.7838H20.6157C20.4039 20.7838 20.1921 20.6657 20.1013 20.4887L19.8592 20.1051C19.8592 20.1051 18.3157 18.3346 17.3776 17.7739C16.4092 17.2428 16.4394 18.01 16.4394 18.01V19.5739C16.4394 20.2231 15.8947 20.7543 15.2289 20.7543H14.6236C14.6236 20.7543 11.2947 20.7543 8.63154 16.8887C6.54338 13.8789 5.84733 11.9313 5.60522 10.81C5.5447 10.4559 5.81706 10.1018 6.21049 10.1018Z" fill="#CBC9D5"/>
</svg>
